<?xml version="1.0" encoding="utf-8"?>
<!-- Generator: Adobe Illustrator 26.0.0, SVG Export Plug-In . SVG Version: 6.00 Build 0)  -->
<svg version="1.1" id="图层_1" xmlns="http://www.w3.org/2000/svg" xmlns:xlink="http://www.w3.org/1999/xlink" x="0px" y="0px"
	 viewBox="0 0 646 1024" style="enable-background:new 0 0 646 1024;" xml:space="preserve">
<style type="text/css">
	.st0{enable-background:new    ;}
</style>
<g class="st0">
	<path d="M481.3,199.7c0-10.2-5.1-15.4-15.4-15.4H384c-10.2,0-15.4-5.1-15.4-15.4c0-10.2,5.1-15.4,15.4-15.4h112.6
		c10.2,0,15.4,5.1,15.4,15.4v655.4c0,10.2,5.1,15.4,15.4,15.4H599c10.2,0,15.4,5.1,15.4,15.4c0,10.2-5.1,15.4-15.4,15.4H496.6
		c-10.2,0-15.4-5.1-15.4-15.4v-57.3c0-6.8-1.4-11.6-4.1-14.3c-2.7-2.7-6.8-1.4-12.3,4.1c-17.1,22.5-42.2,43.7-75.3,63.5
		c-33.1,19.8-68.8,29.7-107,29.7c-72.4,0-129-23.7-170-71.2c-41-47.4-61.4-112.1-61.4-194s24.4-145.2,73.2-190
		s116.6-67.1,203.3-67.1h138.2c10.2,0,15.4-5.1,15.4-15.4V199.7z M481.3,404.5c0-10.2-5.1-15.4-15.4-15.4H327.7
		c-77.8,0-138.3,19.1-181.3,57.3c-43,38.2-64.5,94.4-64.5,168.5s17.9,131.8,53.8,173c35.8,41.3,82.3,62,139.3,62
		s108.4-22.9,154.1-68.6c19.1-19.1,36.5-42.3,52.2-69.6V404.5z"/>
</g>
</svg>
