<?xml version="1.0" encoding="utf-8"?>
<!-- Generator: Adobe Illustrator 26.0.0, SVG Export Plug-In . SVG Version: 6.00 Build 0)  -->
<svg version="1.1" id="图层_1" xmlns="http://www.w3.org/2000/svg" xmlns:xlink="http://www.w3.org/1999/xlink" x="0px" y="0px"
	 viewBox="0 0 580 1024" style="enable-background:new 0 0 580 1024;" xml:space="preserve">
<style type="text/css">
	.st0{enable-background:new    ;}
</style>
<g class="st0">
	<path d="M454.7,798.7c10.9-8.2,19.3-15,25.1-20.5c5.8-5.5,10.4-7.3,13.8-5.6c3.4,1.7,7.7,5.5,12.8,11.3c5.1,5.8,3.6,12.1-4.6,19
		c-24.6,21.2-52.9,39.4-85,54.8c-32.1,15.3-73,23-122.9,23c-72.4,0-130.6-24.9-174.6-74.8c-44-49.8-66-113.7-66-191.5
		c0-77.8,22-141.6,66-191.5c44-49.8,101.7-74.8,173-74.8s129.5,22.5,174.6,67.6c45.1,45.1,67.6,99.3,67.6,162.8v15.4
		c0,20.5-10.2,30.7-30.7,30.7H100.4c-11.6,0-16.8,5.1-15.4,15.4c4.1,59.4,24.4,109.2,60.9,149.5c36.5,40.3,86.7,60.4,150.5,60.4
		S413,832.8,454.7,798.7z M86,581.6c0,8.2,4.8,12.3,14.3,12.3h388.1c10.2,0,15.4-5.1,15.4-15.4c0-54.6-20-101.5-59.9-140.8
		s-90.5-58.9-151.6-58.9s-110.8,21.5-149,64.5C105.1,486.4,86,532.5,86,581.6z"/>
</g>
</svg>
