<?xml version="1.0" encoding="utf-8"?>
<!-- Generator: Adobe Illustrator 26.0.0, SVG Export Plug-In . SVG Version: 6.00 Build 0)  -->
<svg version="1.1" id="图层_1" xmlns="http://www.w3.org/2000/svg" xmlns:xlink="http://www.w3.org/1999/xlink" x="0px" y="0px"
	 viewBox="0 0 442 1024" style="enable-background:new 0 0 442 1024;" xml:space="preserve">
<style type="text/css">
	.st0{enable-background:new    ;}
</style>
<g class="st0">
	<path d="M303.1,143.3c28.7,0,53.6,5.5,74.7,16.4c21.2,10.9,37.2,21.9,48.1,32.8c10.9,10.9,16.4,18.4,16.4,22.5s-2.7,8.5-8.2,13.3
		c-5.5,5.5-12.8,3.6-22-5.6s-23.2-19.6-42-31.2c-18.8-11.6-41.1-17.4-67.1-17.4c-43,0-76,13.5-98.8,40.5S170,280.9,170,332.8V343
		c0,10.2,5.1,15.4,15.4,15.4h163.8c10.2,0,15.4,5.1,15.4,15.4c0,10.2-5.1,15.4-15.4,15.4H185.3c-10.2,0-15.4,5.1-15.4,15.4v419.8
		c0,10.2,5.1,15.4,15.4,15.4h81.9c10.2,0,15.4,5.1,15.4,15.4c0,10.2-5.1,15.4-15.4,15.4h-215c-10.2,0-15.4-5.1-15.4-15.4
		c0-10.2,5.1-15.4,15.4-15.4h71.7c10.2,0,15.4-5.1,15.4-15.4V404.5c0-10.2-5.1-15.4-15.4-15.4H52.2c-10.2,0-15.4-5.1-15.4-15.4
		c0-10.2,5.1-15.4,15.4-15.4h71.7c10.2,0,15.4-5.1,15.4-15.4v-10.2c0-61.4,14-108.4,42-140.8C209.2,159.6,249.9,143.3,303.1,143.3z"
		/>
</g>
</svg>
