<?xml version="1.0" encoding="utf-8"?>
<!-- Generator: Adobe Illustrator 26.0.0, SVG Export Plug-In . SVG Version: 6.00 Build 0)  -->
<svg version="1.1" id="图层_1" xmlns="http://www.w3.org/2000/svg" xmlns:xlink="http://www.w3.org/1999/xlink" x="0px" y="0px"
	 viewBox="0 0 619 1024" style="enable-background:new 0 0 619 1024;" xml:space="preserve">
<style type="text/css">
	.st0{enable-background:new    ;}
</style>
<g class="st0">
	<path d="M81.9,728c0,26.6,27.3,39.9,81.9,39.9h128c137.2,0,221.2,31.4,251.9,94.2c9.5,19.1,14.3,40.6,14.3,64.5
		c0.7,75.8-46.8,124.6-142.3,146.4c-34.1,8.2-75.4,12.3-123.9,12.3c-137.2,0-221.2-31.4-251.9-94.2c-9.6-19.1-14.3-40.6-14.3-64.5
		c0-23.2,6.7-46.1,20-68.6c13.3-22.5,32.2-39.9,56.8-52.2c4.8-2,7.2-4.9,7.2-8.7s-4.4-7.2-13.3-10.2c-8.9-3.1-18.4-10.1-28.7-21
		c-10.9-10.9-16.4-24.6-16.4-41c0-26.6,18.1-47.8,54.3-63.5c8.9-4.8,8.5-12.6-1-23.6c-24.6-27.3-37-66-37.4-116.2
		c-0.3-50.2,18.4-91.6,56.3-124.4c37.9-32.8,91.3-49.2,160.2-49.2s122.9,12.6,161.8,37.9c21.8-21.8,49.1-32.8,81.9-32.8h66.6
		c10.2,0,15.4,5.1,15.4,15.4v117.8c0,10.2-5.1,15.4-15.4,15.4c-10.2,0-15.4-5.1-15.4-15.4v-92.2c0-10.2-5.1-15.4-15.4-15.4h-35.8
		c-14.3,0-30.4,4.4-48.1,13.3c-8.2,8.2-8.5,15.7-1,22.5c25.9,30.7,38.9,70.7,38.9,119.8s-19,90.1-56.8,122.9s-91,49.1-159.2,49.1
		s-119.5-10.9-153.6-32.8c-19.8,5.5-35.7,12-47.6,19.5C87.9,700.8,81.9,712.4,81.9,728z M291.8,798.7c-157,0-235.5,42.7-235.5,128
		s78.5,128,235.5,128c123.6,0,198.3-25.9,224.2-77.8c8.2-15.7,12-32.4,11.3-50.2C527.4,841.4,448.8,798.7,291.8,798.7z M291.8,675.8
		c68.9,0,118.6-13.1,149-39.4s45.6-62.5,45.6-108.5s-15.2-82.4-45.6-109.1s-80-39.9-149-39.9c-69,0-118.6,13.3-149,39.9
		s-45.6,63-45.6,109.1s15.2,82.2,45.6,108.5S222.9,675.8,291.8,675.8z"/>
</g>
</svg>
