<?xml version="1.0" encoding="utf-8"?>
<!-- Generator: Adobe Illustrator 26.0.0, SVG Export Plug-In . SVG Version: 6.00 Build 0)  -->
<svg version="1.1" id="图层_1" xmlns="http://www.w3.org/2000/svg" xmlns:xlink="http://www.w3.org/1999/xlink" x="0px" y="0px"
	 viewBox="0 0 666 1024" style="enable-background:new 0 0 666 1024;" xml:space="preserve">
<style type="text/css">
	.st0{enable-background:new    ;}
</style>
<g class="st0">
	<path d="M34.8,839.7h71.7c10.2,0,15.4-5.1,15.4-15.4V199.7c0-10.2-5.1-15.4-15.4-15.4H34.8c-10.2,0-15.4-5.1-15.4-15.4
		c0-10.2,5.1-15.4,15.4-15.4h102.4c10.2,0,15.4,5.1,15.4,15.4v262.1c0,6.8,1.4,11.6,4.1,14.3c2.7,2.7,6.8,1.4,12.3-4.1
		c55.3-62.1,115.4-93.2,180.2-93.2c64.8,0,114.9,17.6,150,52.7s52.7,85.8,52.7,152.1v271.4c0,10.2,5.1,15.4,15.4,15.4H639
		c10.2,0,15.4,5.1,15.4,15.4c0,10.2-5.1,15.4-15.4,15.4H444.4c-10.2,0-15.4-5.1-15.4-15.4c0-10.2,5.1-15.4,15.4-15.4h61.4
		c10.2,0,15.4-5.1,15.4-15.4V553c0-58-15-101.5-45.1-130.6c-30-29-71-43.5-122.9-43.5c-51.9,0-101,23.2-147.5,69.6
		c-19.8,20.5-37.6,43.4-53.2,68.6v307.2c0,10.2,5.1,15.4,15.4,15.4h61.4c10.2,0,15.4,5.1,15.4,15.4c0,10.2-5.1,15.4-15.4,15.4H34.8
		c-10.2,0-15.4-5.1-15.4-15.4C19.5,844.8,24.6,839.7,34.8,839.7z"/>
</g>
</svg>
