<?xml version="1.0" encoding="utf-8"?>
<!-- Generator: Adobe Illustrator 26.0.0, SVG Export Plug-In . SVG Version: 6.00 Build 0)  -->
<svg version="1.1" id="图层_1" xmlns="http://www.w3.org/2000/svg" xmlns:xlink="http://www.w3.org/1999/xlink" x="0px" y="0px"
	 viewBox="0 0 292 1024" style="enable-background:new 0 0 292 1024;" xml:space="preserve">
<style type="text/css">
	.st0{enable-background:new    ;}
</style>
<g class="st0">
	<path d="M37.9,855c0-10.2,5.1-15.4,15.4-15.4h71.7c10.2,0,15.4-5.1,15.4-15.4V404.5c0-10.2-5.1-15.4-15.4-15.4H53.2
		c-10.2,0-15.4-5.1-15.4-15.4c0-10.2,5.1-15.4,15.4-15.4h102.4c10.2,0,15.4,5.1,15.4,15.4v450.6c0,10.2,5.1,15.4,15.4,15.4H258
		c10.2,0,15.4,5.1,15.4,15.4c0,10.2-5.1,15.4-15.4,15.4H53.2C43,870.4,37.9,865.3,37.9,855z M121.3,264.7
		c-7.9-7.8-11.8-17.6-11.8-29.2c0-11.6,3.9-21.3,11.8-29.2c7.8-7.8,17.6-11.8,29.2-11.8c11.6,0,21.3,3.9,29.2,11.8
		c7.8,7.9,11.8,17.6,11.8,29.2c0,11.6-3.9,21.3-11.8,29.2s-17.6,11.8-29.2,11.8C138.9,276.5,129.2,272.5,121.3,264.7z"/>
</g>
</svg>
