<?xml version="1.0" encoding="utf-8"?>
<!-- Generator: Adobe Illustrator 26.0.0, SVG Export Plug-In . SVG Version: 6.00 Build 0)  -->
<svg version="1.1" id="图层_1" xmlns="http://www.w3.org/2000/svg" xmlns:xlink="http://www.w3.org/1999/xlink" x="0px" y="0px"
	 viewBox="0 0 250 1024" style="enable-background:new 0 0 250 1024;" xml:space="preserve">
<style type="text/css">
	.st0{enable-background:new    ;}
</style>
<g class="st0">
	<path d="M0,1054.7c38.2,0,68.1-12.5,89.6-37.4c21.5-24.9,32.3-62,32.3-111.1V404.5c0-10.2-5.1-15.4-15.4-15.4H34.8
		c-10.2,0-15.4-5.1-15.4-15.4c0-10.2,5.1-15.4,15.4-15.4h102.4c10.2,0,15.4,5.1,15.4,15.4v532.5c0,58-13.5,102.4-40.5,133.1
		c-27,30.7-66,46.1-117.2,46.1c-51.2,0-93.5-19.5-127-58.4c-4.8-4.8-7.2-9.2-7.2-13.3s1.7-7.5,5.1-10.2c6.8-6.8,15-5.8,24.6,3.1
		C-74.8,1038.7-38.2,1054.7,0,1054.7z M102.4,265.2c-7.5-8.2-11.3-18.1-11.3-29.7c0-11.6,3.9-21.3,11.8-29.2
		c7.8-7.8,17.6-11.8,29.2-11.8c11.6,0,21.3,3.9,29.2,11.8c7.8,7.9,11.8,17.6,11.8,29.2c0,11.6-3.9,21.3-11.8,29.2
		c-7.9,7.8-17.6,11.8-29.2,11.8C120.5,276.5,110.6,272.7,102.4,265.2z"/>
</g>
</svg>
