<?xml version="1.0" encoding="utf-8"?>
<!-- Generator: Adobe Illustrator 26.0.0, SVG Export Plug-In . SVG Version: 6.00 Build 0)  -->
<svg version="1.1" id="图层_1" xmlns="http://www.w3.org/2000/svg" xmlns:xlink="http://www.w3.org/1999/xlink" x="0px" y="0px"
	 viewBox="0 0 594 1024" style="enable-background:new 0 0 594 1024;" xml:space="preserve">
<style type="text/css">
	.st0{enable-background:new    ;}
</style>
<g class="st0">
	<path d="M34.8,839.7h71.7c10.2,0,15.4-5.1,15.4-15.4V199.7c0-10.2-5.1-15.4-15.4-15.4H34.8c-10.2,0-15.4-5.1-15.4-15.4
		c0-10.2,5.1-15.4,15.4-15.4h102.4c10.2,0,15.4,5.1,15.4,15.4v503.8l245.8-268.3c4.1-3.4,5.6-6.8,4.6-10.2s-4.3-5.1-9.7-5.1h-57.3
		c-10.2,0-15.4-5.1-15.4-15.4c0-10.2,5.1-15.4,15.4-15.4h200.7c10.2,0,15.4,5.1,15.4,15.4c0,10.2-5.1,15.4-15.4,15.4H471
		c-7.5,0-16.4,5.1-26.6,15.4L290.8,571.4l184.3,252.9c8.9,10.2,17.4,15.4,25.6,15.4h66.6c10.2,0,15.4,5.1,15.4,15.4
		c0,10.2-5.1,15.4-15.4,15.4H372.7c-10.2,0-15.4-5.1-15.4-15.4c0-10.2,5.1-15.4,15.4-15.4h56.3c12.3,0,14-5.1,5.1-15.4L268.3,596
		l-115.7,127v101.4c0,10.2,5.1,15.4,15.4,15.4h61.4c10.2,0,15.4,5.1,15.4,15.4c0,10.2-5.1,15.4-15.4,15.4H34.8
		c-10.2,0-15.4-5.1-15.4-15.4C19.5,844.8,24.6,839.7,34.8,839.7z"/>
</g>
</svg>
