<?xml version="1.0" encoding="utf-8"?>
<!-- Generator: Adobe Illustrator 26.0.0, SVG Export Plug-In . SVG Version: 6.00 Build 0)  -->
<svg version="1.1" id="图层_1" xmlns="http://www.w3.org/2000/svg" xmlns:xlink="http://www.w3.org/1999/xlink" x="0px" y="0px"
	 viewBox="0 0 982 1024" style="enable-background:new 0 0 982 1024;" xml:space="preserve">
<style type="text/css">
	.st0{enable-background:new    ;}
</style>
<g class="st0">
	<path d="M52.2,839.7h71.7c10.2,0,15.4-5.1,15.4-15.4V404.5c0-10.2-5.1-15.4-15.4-15.4H52.2c-10.2,0-15.4-5.1-15.4-15.4
		c0-10.2,5.1-15.4,15.4-15.4h102.4c10.2,0,15.4,5.1,15.4,15.4v57.3c0,17.8,5.5,21.2,16.4,10.2c53.2-62.1,105.8-93.2,157.7-93.2
		c39.6,0,74.1,11.3,103.4,33.8c29.3,22.5,49.8,55,61.4,97.3c13.7-23.9,30-45.7,49.2-65.5c42.3-43.7,88.1-65.5,137.2-65.5
		s89.9,17.9,122.4,53.8s48.6,86.2,48.6,151v271.4c0,10.2,5.1,15.4,15.4,15.4h71.7c10.2,0,15.4,5.1,15.4,15.4
		c0,10.2-5.1,15.4-15.4,15.4H758.8c-10.2,0-15.4-5.1-15.4-15.4c0-10.2,5.1-15.4,15.4-15.4h61.4c10.2,0,15.4-5.1,15.4-15.4V553
		c0-56-13.7-99-41-129s-61.8-45.1-103.4-45.1s-83.6,23.9-125.9,71.7c-19.1,21.8-35.5,45.8-49.2,71.7c1.4,15,2,25.3,2,30.7v271.4
		c0,10.2,5.1,15.4,15.4,15.4h61.4c10.2,0,15.4,5.1,15.4,15.4c0,10.2-5.1,15.4-15.4,15.4H410.6c-10.2,0-15.4-5.1-15.4-15.4
		c0-10.2,5.1-15.4,15.4-15.4h61.4c10.2,0,15.4-5.1,15.4-15.4V553c0-56-13.7-99-41-129s-61.6-45.1-102.9-45.1
		c-41.3,0-82.4,23.2-123.4,69.6c-17.8,19.8-34.5,42.7-50.2,68.6v307.2c0,10.2,5.1,15.4,15.4,15.4h61.4c10.2,0,15.4,5.1,15.4,15.4
		c0,10.2-5.1,15.4-15.4,15.4H52.2c-10.2,0-15.4-5.1-15.4-15.4C36.9,844.8,42,839.7,52.2,839.7z"/>
</g>
</svg>
