<?xml version="1.0" encoding="utf-8"?>
<!-- Generator: Adobe Illustrator 26.0.0, SVG Export Plug-In . SVG Version: 6.00 Build 0)  -->
<svg version="1.1" id="图层_1" xmlns="http://www.w3.org/2000/svg" xmlns:xlink="http://www.w3.org/1999/xlink" x="0px" y="0px"
	 viewBox="0 0 606 1024" style="enable-background:new 0 0 606 1024;" xml:space="preserve">
<style type="text/css">
	.st0{enable-background:new    ;}
</style>
<g class="st0">
	<path d="M121.8,806.9c-46.4-49.2-69.6-113.3-69.6-192.5S75.4,471,121.8,421.9s106.8-73.7,181.2-73.7s134.8,24.6,181.2,73.7
		S554,535.2,554,614.4s-23.2,143.4-69.6,192.5s-106.8,73.7-181.2,73.7S168.3,856.1,121.8,806.9z M303.1,378.9
		c-66.2,0-119.5,21.5-159.8,64.5S82.9,543.6,82.9,614.9s20,128.3,59.9,171c39.9,42.7,93.3,64,160.2,64s120.3-21.3,160.3-64
		c39.9-42.7,59.9-99.7,59.9-171s-20.1-128.5-60.4-171.5S369.3,378.9,303.1,378.9z"/>
</g>
</svg>
