<?xml version="1.0" encoding="utf-8"?>
<!-- Generator: Adobe Illustrator 26.0.0, SVG Export Plug-In . SVG Version: 6.00 Build 0)  -->
<svg version="1.1" id="图层_1" xmlns="http://www.w3.org/2000/svg" xmlns:xlink="http://www.w3.org/1999/xlink" x="0px" y="0px"
	 viewBox="0 0 636 1024" style="enable-background:new 0 0 636 1024;" xml:space="preserve">
<style type="text/css">
	.st0{enable-background:new    ;}
</style>
<g class="st0">
	<path d="M167.9,870.4c-10.2,0-15.4,5.1-15.4,15.4v143.4c0,10.2,5.1,15.4,15.4,15.4h81.9c10.2,0,15.4,5.1,15.4,15.4
		c0,10.2-5.1,15.4-15.4,15.4h-215c-10.2,0-15.4-5.1-15.4-15.4c0-10.2,5.1-15.4,15.4-15.4h71.7c10.2,0,15.4-5.1,15.4-15.4V404.5
		c0-10.2-5.1-15.4-15.4-15.4H34.8c-10.2,0-15.4-5.1-15.4-15.4c0-10.2,5.1-15.4,15.4-15.4h102.4c10.2,0,15.4,5.1,15.4,15.4v57.3
		c0,6.8,1.4,11.6,4.1,14.3c2.7,2.7,6.8,1.4,12.3-4.1c17.1-21.8,42-42.8,74.8-63c32.8-20.1,70.7-30.2,113.7-30.2
		c68.3,0,122.9,24.1,163.8,72.2c41,48.1,61.4,112.8,61.4,194c0,81.2-24.6,144.4-73.7,189.4c-49.2,44.4-116.7,66.6-202.8,66.6H167.9z
		 M306.2,839.7c78.5,0,139.1-19.1,181.8-57.3c42.7-38.2,64-94.5,64-169S534,481.3,498.2,440.3c-35.8-41-82.1-61.4-138.8-61.4
		s-108.2,23.2-154.6,69.6c-19.1,19.1-36.5,42-52.2,68.6v307.2c0,10.2,5.1,15.4,15.4,15.4H306.2z"/>
</g>
</svg>
