<?xml version="1.0" encoding="utf-8"?>
<!-- Generator: Adobe Illustrator 26.0.0, SVG Export Plug-In . SVG Version: 6.00 Build 0)  -->
<svg version="1.1" id="图层_1" xmlns="http://www.w3.org/2000/svg" xmlns:xlink="http://www.w3.org/1999/xlink" x="0px" y="0px"
	 viewBox="0 0 626 1024" style="enable-background:new 0 0 626 1024;" xml:space="preserve">
<style type="text/css">
	.st0{enable-background:new    ;}
</style>
<g class="st0">
	<path d="M484.4,885.8c0-10.2-5.1-15.4-15.4-15.4H330.8c-86.7,0-154.3-22.2-202.8-66.6c-49.2-44.4-73.7-107.3-73.7-188.9
		s20.5-146.4,61.4-194.6s95.6-72.2,163.8-72.2c43,0,80.9,10.2,113.7,30.7c32.1,17.8,57,38.6,74.8,62.5c5.5,5.5,9.5,6.8,12.3,4.1
		s4.1-7.5,4.1-14.3v-57.3c0-10.2,5.1-15.4,15.4-15.4c10.2,0,15.4,5.1,15.4,15.4v655.4c0,10.2,5.1,15.4,15.4,15.4h71.7
		c10.2,0,15.4,5.1,15.4,15.4c0,10.2-5.1,15.4-15.4,15.4h-215c-10.2,0-15.4-5.1-15.4-15.4c0-10.2,5.1-15.4,15.4-15.4H469
		c10.2,0,15.4-5.1,15.4-15.4V885.8z M484.4,517.1c-13-23.9-30.4-46.8-52.2-68.6c-46.4-46.4-98-69.6-154.6-69.6s-102.9,20.7-138.8,62
		c-35.8,41.3-53.8,99-53.8,173.1s21.5,130.2,64.5,168.4c43,38.2,103.4,57.3,181.2,57.3H469c10.2,0,15.4-5.1,15.4-15.4V517.1z"/>
</g>
</svg>
