<?xml version="1.0" encoding="utf-8"?>
<!-- Generator: Adobe Illustrator 26.0.0, SVG Export Plug-In . SVG Version: 6.00 Build 0)  -->
<svg version="1.1" id="图层_1" xmlns="http://www.w3.org/2000/svg" xmlns:xlink="http://www.w3.org/1999/xlink" x="0px" y="0px"
	 viewBox="0 0 519 1024" style="enable-background:new 0 0 519 1024;" xml:space="preserve">
<style type="text/css">
	.st0{enable-background:new    ;}
</style>
<g class="st0">
	<path d="M426,378.9c-86,0-157.7,33.8-215,101.4c-16.4,19.1-30,38.2-41,57.3v286.7c0,10.2,5.1,15.4,15.4,15.4h81.9
		c10.2,0,15.4,5.1,15.4,15.4c0,10.2-5.1,15.4-15.4,15.4h-215c-10.2,0-15.4-5.1-15.4-15.4c0-10.2,5.1-15.4,15.4-15.4h71.7
		c10.2,0,15.4-5.1,15.4-15.4V404.5c0-10.2-5.1-15.4-15.4-15.4H52.2c-10.2,0-15.4-5.1-15.4-15.4c0-10.2,5.1-15.4,15.4-15.4h102.4
		c10.2,0,15.4,5.1,15.4,15.4v80.9c0,17.1,7.2,17.4,21.5,1c25.2-28.7,58.2-53.8,98.8-75.3s85.8-32.2,135.7-32.2h50.2
		c10.2,0,15.4,5.1,15.4,15.4v128c0,10.2-5.1,15.4-15.4,15.4c-10.2,0-15.4-5.1-15.4-15.4v-97.3c0-10.2-5.1-15.4-15.4-15.4H426z"/>
</g>
</svg>
