<?xml version="1.0" encoding="utf-8"?>
<!-- Generator: Adobe Illustrator 26.0.0, SVG Export Plug-In . SVG Version: 6.00 Build 0)  -->
<svg version="1.1" id="图层_1" xmlns="http://www.w3.org/2000/svg" xmlns:xlink="http://www.w3.org/1999/xlink" x="0px" y="0px"
	 viewBox="0 0 567 1024" style="enable-background:new 0 0 567 1024;" xml:space="preserve">
<style type="text/css">
	.st0{enable-background:new    ;}
</style>
<g class="st0">
	<path d="M297,849.9c59.4,0,105-10.4,136.7-31.2s47.6-48,47.6-81.4c0-45-32.4-75.1-97.3-90.1c-30-6.8-66.2-13.3-108.5-19.5
		c-41.7-6.1-72-11.9-91.1-17.4c-41-10.9-71.7-26.1-92.2-45.6c-20.5-19.5-30.7-47.1-30.7-83s18.2-67.1,54.8-93.7
		s87.6-39.9,153.1-39.9s123.9,25.6,175.1,76.8c6.1,6.8,10.4,8.2,12.8,4.1s3.6-8.9,3.6-14.3v-41c0-10.2,5.1-15.4,15.4-15.4
		c10.2,0,15.4,5.1,15.4,15.4v163.8c0,10.2-5.1,15.4-15.4,15.4c-10.2,0-15.4-5.1-15.4-15.4v-51.2c-29.4-38.9-66.9-69.3-112.6-91.1
		c-23.9-10.9-50.9-16.4-80.9-16.4c-56,0-99.2,10.1-129.5,30.2c-30.4,20.1-45.6,45.6-45.6,76.3s13.1,54.5,39.4,71.2
		s66.4,29.2,120.3,37.4c23.2,4.1,46.8,7.9,70.7,11.3c23.9,3.4,45.4,7.2,64.5,11.3c39.6,8.9,70.3,22.5,92.2,41S512,704,512,741.9
		c0,37.9-17.9,70.5-53.8,97.8s-89.6,41-161.3,41c-56,0-107.9-16.4-155.6-49.1c-13.7-9.6-24.2-18.3-31.8-26.1
		c-7.5-7.8-12.3-9.7-14.3-5.6s-3.1,8.9-3.1,14.3v41c0,10.2-5.1,15.4-15.4,15.4c-10.2,0-15.4-5.1-15.4-15.4V691.2
		c0-10.2,5.1-15.4,15.4-15.4c10.2,0,15.4,5.1,15.4,15.4v51.2c28,39.6,66.2,70,114.7,91.1C232.1,844.5,262.1,849.9,297,849.9z"/>
</g>
</svg>
