<?xml version="1.0" encoding="utf-8"?>
<!-- Generator: Adobe Illustrator 26.0.0, SVG Export Plug-In . SVG Version: 6.00 Build 0)  -->
<svg version="1.1" id="图层_1" xmlns="http://www.w3.org/2000/svg" xmlns:xlink="http://www.w3.org/1999/xlink" x="0px" y="0px"
	 viewBox="0 0 412 1024" style="enable-background:new 0 0 412 1024;" xml:space="preserve">
<style type="text/css">
	.st0{enable-background:new    ;}
</style>
<g class="st0">
	<path d="M384,798.7c6.8-6.8,13-7.5,18.4-2s8.2,9.9,8.2,13.3c0.7,3.4-1.7,7.9-7.2,13.3c-16.4,16.4-32.8,28.7-49.2,36.9
		c-42.3,14.3-66.6,21.3-72.7,21s-9.5-0.5-10.2-0.5c-47.8,0-85.3-15.4-112.6-46.1s-41-75.1-41-133.1v-297c0-10.2-5.1-15.4-15.4-15.4
		H30.7c-10.2,0-15.4-5.1-15.4-15.4c0-10.2,5.1-15.4,15.4-15.4h71.7c10.2,0,15.4-5.1,15.4-15.4V169c0-10.2,5.1-15.4,15.4-15.4
		c10.2,0,15.4,5.1,15.4,15.4V343c0,10.2,5.1,15.4,15.4,15.4h174.1c10.2,0,15.4,5.1,15.4,15.4c0,10.2-5.1,15.4-15.4,15.4H163.8
		c-10.2,0-15.4,5.1-15.4,15.4v297c0,49.2,10.9,86.2,32.8,111.1c21.8,24.9,52,37.4,90.6,37.4C310.4,849.9,347.8,832.8,384,798.7z"/>
</g>
</svg>
