<?xml version="1.0" encoding="utf-8"?>
<!-- Generator: Adobe Illustrator 26.0.0, SVG Export Plug-In . SVG Version: 6.00 Build 0)  -->
<svg version="1.1" id="图层_1" xmlns="http://www.w3.org/2000/svg" xmlns:xlink="http://www.w3.org/1999/xlink" x="0px" y="0px"
	 viewBox="0 0 665 1024" style="enable-background:new 0 0 665 1024;" xml:space="preserve">
<style type="text/css">
	.st0{enable-background:new    ;}
</style>
<g class="st0">
	<path d="M26.6,358.4H129c10.2,0,15.4,5.1,15.4,15.4v302.1c0,58,15,101.6,45,130.6c30,29,71,43.5,122.9,43.5S413,827,458.8,781.3
		c20.5-21.2,38.6-44.4,54.3-69.6V404.5c0-10.2-5.1-15.4-15.4-15.4H426c-10.2,0-15.4-5.1-15.4-15.4c0-10.2,5.1-15.4,15.4-15.4h102.4
		c10.2,0,15.4,5.1,15.4,15.4v450.6c0,10.2,5.1,15.4,15.4,15.4h71.7c10.2,0,15.4,5.1,15.4,15.4c0,10.2-5.1,15.4-15.4,15.4H528.4
		c-10.2,0-15.4-5.1-15.4-15.4v-57.3c0-6.8-1.4-11.6-4.1-14.3s-6.8-1.4-12.3,4.1c-55.3,62.1-115.4,93.2-180.2,93.2
		c-64.9,0-114.9-17.6-150-52.7s-52.7-85.8-52.7-152.1V404.5c0-10.2-5.1-15.4-15.4-15.4H26.6c-10.2,0-15.4-5.1-15.4-15.4
		C11.3,363.5,16.4,358.4,26.6,358.4z"/>
</g>
</svg>
