<?xml version="1.0" encoding="utf-8"?>
<!-- Generator: Adobe Illustrator 26.0.0, SVG Export Plug-In . SVG Version: 6.00 Build 0)  -->
<svg version="1.1" id="图层_1" xmlns="http://www.w3.org/2000/svg" xmlns:xlink="http://www.w3.org/1999/xlink" x="0px" y="0px"
	 viewBox="0 0 640 1024" style="enable-background:new 0 0 640 1024;" xml:space="preserve">
<style type="text/css">
	.st0{enable-background:new    ;}
</style>
<g class="st0">
	<path d="M14.3,358.4h194.5c10.2,0,15.4,5.1,15.4,15.4c0,10.2-5.1,15.4-15.4,15.4h-63.5c-12.3,0-15.7,5.1-10.2,15.4l178.2,416.8
		c1.4,4.1,3.4,6.1,6.1,6.1c2.7,0,4.8-2,6.1-6.1l178.2-416.8c5.5-10.2,2-15.4-10.2-15.4h-63.5c-10.2,0-15.4-5.1-15.4-15.4
		c0-10.2,5.1-15.4,15.4-15.4h194.6c10.2,0,15.4,5.1,15.4,15.4c0,10.2-5.1,15.4-15.4,15.4h-66.6c-8.9,0-15.7,5.1-20.5,15.4L340,865.3
		c-5.5,10.2-12.3,15.4-20.5,15.4s-15-5.1-20.5-15.4L101.4,404.5c-4.8-10.2-11.6-15.4-20.5-15.4H14.3C4.1,389.1-1,384-1,373.8
		C-1,363.5,4.1,358.4,14.3,358.4z"/>
</g>
</svg>
