<?xml version="1.0" encoding="utf-8"?>
<!-- Generator: Adobe Illustrator 26.0.0, SVG Export Plug-In . SVG Version: 6.00 Build 0)  -->
<svg version="1.1" id="图层_1" xmlns="http://www.w3.org/2000/svg" xmlns:xlink="http://www.w3.org/1999/xlink" x="0px" y="0px"
	 viewBox="0 0 885 1024" style="enable-background:new 0 0 885 1024;" xml:space="preserve">
<style type="text/css">
	.st0{enable-background:new    ;}
</style>
<g class="st0">
	<path d="M14.3,358.4h194.5c10.2,0,15.4,5.1,15.4,15.4c0,10.2-5.1,15.4-15.4,15.4h-61.4c-12.3,0-15.7,5.1-10.2,15.4l138.2,392.2
		c1.4,4.1,3.4,6.2,6.1,6.2s4.8-2,6.2-6.2l134.1-422.9c2.7-10.2,9.5-15.4,20.5-15.4s17.8,5.1,20.5,15.4L597,796.7
		c1.4,4.1,3.4,6.2,6.2,6.2c2.7,0,4.8-2,6.1-6.2l138.2-392.2c5.5-10.2,2-15.4-10.2-15.4h-61.4c-10.2,0-15.4-5.1-15.4-15.4
		c0-10.2,5.1-15.4,15.4-15.4h194.6c10.2,0,15.4,5.1,15.4,15.4c0,10.2-5.1,15.4-15.4,15.4h-66.6c-10.2,0-17.1,5.1-20.5,15.4
		L620.5,865.3c-2.7,10.2-8.5,15.4-17.4,15.4s-14.7-5.1-17.4-15.4L452.6,445.4c-1.4-5.5-4.8-8.2-10.2-8.2s-8.9,2.7-10.2,8.2
		L299,865.3c-2.8,10.2-8.5,15.4-17.4,15.4s-14.7-5.1-17.4-15.4L101.4,404.5c-3.4-10.2-10.2-15.4-20.5-15.4H14.3
		C4.1,389.1-1,384-1,373.8C-1,363.5,4.1,358.4,14.3,358.4z"/>
</g>
</svg>
