<?xml version="1.0" encoding="utf-8"?>
<!-- Generator: Adobe Illustrator 26.0.0, SVG Export Plug-In . SVG Version: 6.00 Build 0)  -->
<svg version="1.1" id="图层_1" xmlns="http://www.w3.org/2000/svg" xmlns:xlink="http://www.w3.org/1999/xlink" x="0px" y="0px"
	 viewBox="0 0 592 1024" style="enable-background:new 0 0 592 1024;" xml:space="preserve">
<style type="text/css">
	.st0{enable-background:new    ;}
</style>
<g class="st0">
	<path d="M37.9,839.7h61.4c8.2,0,16.7-5.1,25.6-15.4l146.4-203.8c4.1-6.1,4.1-12.3,0-18.4L130,404.5c-6.2-10.2-14.7-15.4-25.6-15.4
		H43c-10.2,0-15.4-5.1-15.4-15.4c0-10.2,5.1-15.4,15.4-15.4h194.5c10.2,0,15.4,5.1,15.4,15.4c0,10.2-5.1,15.4-15.4,15.4h-61.4
		c-5.5,0-9.4,1.5-11.8,4.6c-2.4,3.1-1.9,6.7,1.5,10.8l122.9,171c4.8,6.8,9.6,6.8,14.3,0l123.9-171c3.4-4.1,3.9-7.7,1.5-10.8
		c-2.4-3.1-6.3-4.6-11.8-4.6h-61.4c-10.2,0-15.4-5.1-15.4-15.4c0-10.2,5.1-15.4,15.4-15.4h194.6c10.2,0,15.4,5.1,15.4,15.4
		c0,10.2-5.1,15.4-15.4,15.4h-61.4c-10.9,0-19.5,5.1-25.6,15.4L321.5,602.1c-4.1,6.1-4.1,12.3,0,18.4L468,824.3
		c8.9,10.2,17.4,15.4,25.6,15.4H555c10.2,0,15.4,5.1,15.4,15.4c0,10.2-5.1,15.4-15.4,15.4H360.5c-10.2,0-15.4-5.1-15.4-15.4
		c0-10.2,5.1-15.4,15.4-15.4h61.4c5.5,0,9.4-1.5,11.8-4.6c2.4-3.1,1.9-6.7-1.5-10.8l-129-178.2c-4.8-6.8-9.6-6.8-14.3,0l-128,178.2
		c-3.4,4.1-3.9,7.7-1.5,10.8c2.4,3.1,6.3,4.6,11.8,4.6h61.4c10.2,0,15.4,5.1,15.4,15.4c0,10.2-5.1,15.4-15.4,15.4H37.9
		c-10.2,0-15.4-5.1-15.4-15.4C22.5,844.8,27.6,839.7,37.9,839.7z"/>
</g>
</svg>
