<?xml version="1.0" encoding="utf-8"?>
<!-- Generator: Adobe Illustrator 26.0.0, SVG Export Plug-In . SVG Version: 6.00 Build 0)  -->
<svg version="1.1" id="图层_1" xmlns="http://www.w3.org/2000/svg" xmlns:xlink="http://www.w3.org/1999/xlink" x="0px" y="0px"
	 viewBox="0 0 632 1024" style="enable-background:new 0 0 632 1024;" xml:space="preserve">
<style type="text/css">
	.st0{enable-background:new    ;}
</style>
<g class="st0">
	<path d="M269.8,1035.2c-17.4,19.1-34.1,32.2-50.2,39.4c-16,7.2-33.6,10.8-52.7,10.8c-32.1,0-59-6-80.9-17.9
		c-21.8-12-38.6-25.4-50.2-40.5c-8.2-8.2-8.9-15.9-2.1-23c6.8-7.2,14-7.4,21.5-0.5c11.6,11.6,26.1,23,43.5,34.3
		c17.4,11.2,40.6,16.9,69.6,16.9s53.8-11.8,74.2-35.3c20.5-23.6,40.6-61.3,60.4-113.1l10.2-26.6c2.7-8.9,2.7-17.1,0-24.6l-212-450.6
		c-5.5-10.2-12.3-15.4-20.5-15.4H14.3C4.1,389.1-1,384-1,373.8c0-10.2,5.1-15.4,15.4-15.4h194.5c10.2,0,15.4,5.1,15.4,15.4
		c0,10.2-5.1,15.4-15.4,15.4h-63.5c-12.3,0-15.7,5.1-10.2,15.4L328.7,809c3.4,9.6,7.2,9.6,11.3,0l156.7-404.5
		c4.8-10.2,1.4-15.4-10.2-15.4h-63.5c-10.2,0-15.4-5.1-15.4-15.4c0-10.2,5.1-15.4,15.4-15.4h194.6c10.2,0,15.4,5.1,15.4,15.4
		c0,10.2-5.1,15.4-15.4,15.4h-66.6c-8.9,0-15.7,5.1-20.5,15.4L335.9,906.2C309.2,973.1,287.2,1016.1,269.8,1035.2z"/>
</g>
</svg>
