<?xml version="1.0" encoding="utf-8"?>
<!-- Generator: Adobe Illustrator 26.0.0, SVG Export Plug-In . SVG Version: 6.00 Build 0)  -->
<svg version="1.1" id="图层_1" xmlns="http://www.w3.org/2000/svg" xmlns:xlink="http://www.w3.org/1999/xlink" x="0px" y="0px"
	 viewBox="0 0 550 1024" style="enable-background:new 0 0 550 1024;" xml:space="preserve">
<style type="text/css">
	.st0{enable-background:new    ;}
</style>
<g class="st0">
	<path d="M50.2,853c0-6.1,4.1-14,12.3-23.5l376.8-423.9c4.1-3.4,5.1-7,3.1-10.8s-6.8-5.6-14.3-5.6H102.4c-10.2,0-15.4,5.1-15.4,15.4
		v97.3c0,10.2-5.1,15.4-15.4,15.4s-15.4-5.1-15.4-15.4v-128c0-10.2,5.1-15.4,15.4-15.4h412.7c10.2,0,15.4,5.8,15.4,17.4
		c0,6.2-4.1,14-12.3,23.5L110.6,823.3c-4.1,3.4-5.1,7-3.1,10.8s6.8,5.6,14.3,5.6h326.7c10.2,0,15.4-5.1,15.4-15.4V727
		c0-10.2,5.1-15.4,15.4-15.4c10.2,0,15.4,5.1,15.4,15.4v128c0,10.2-5.1,15.4-15.4,15.4H65.5C55.3,870.4,50.2,864.6,50.2,853z"/>
</g>
</svg>
