<?xml version="1.0" encoding="utf-8"?>
<!-- Generator: Adobe Illustrator 26.0.0, SVG Export Plug-In . SVG Version: 6.00 Build 0)  -->
<svg version="1.1" id="图层_1" xmlns="http://www.w3.org/2000/svg" xmlns:xlink="http://www.w3.org/1999/xlink" x="0px" y="0px"
	 viewBox="0 0 1024 1024" style="enable-background:new 0 0 1024 1024;" xml:space="preserve">
<path d="M130.3,808c3.3,0,6.7-1,9.6-3.2l339.4-254.5c12.2-9.1,19.2-23.1,19.2-38.3s-7-29.2-19.2-38.3L139.9,219.2
	c-7.1-5.3-17.1-3.9-22.4,3.2c-5.3,7.1-3.9,17.1,3.2,22.4l339.4,254.5c4,3,6.4,7.7,6.4,12.7s-2.3,9.7-6.4,12.7L120.7,779.2
	c-7.1,5.3-8.5,15.3-3.2,22.4C120.6,805.8,125.4,808,130.3,808z"/>
<path d="M258.3,808c3.3,0,6.7-1,9.6-3.2l339.4-254.5c12.2-9.1,19.2-23.1,19.2-38.3s-7-29.2-19.2-38.3L267.9,219.2
	c-7.1-5.3-17.1-3.9-22.4,3.2c-5.3,7.1-3.9,17.1,3.2,22.4l339.4,254.5c4,3,6.4,7.7,6.4,12.7s-2.3,9.7-6.4,12.7L248.7,779.2
	c-7.1,5.3-8.5,15.3-3.2,22.4C248.6,805.8,253.4,808,258.3,808z"/>
</svg>
