<?xml version="1.0" encoding="utf-8"?>
<!-- Generator: Adobe Illustrator 26.0.0, SVG Export Plug-In . SVG Version: 6.00 Build 0)  -->
<svg version="1.1" id="图层_1" xmlns="http://www.w3.org/2000/svg" xmlns:xlink="http://www.w3.org/1999/xlink" x="0px" y="0px"
	 viewBox="0 0 1024 1024" style="enable-background:new 0 0 1024 1024;" xml:space="preserve">
<path d="M512,932.6c-56.8,0-111.9-11.1-163.7-33.1c-50.1-21.2-95.1-51.5-133.7-90.1c-38.6-38.6-68.9-83.6-90.1-133.7
	c-21.9-51.9-33.1-107-33.1-163.7c0-56.8,11.1-111.9,33.1-163.7c21.2-50.1,51.5-95.1,90.1-133.7c38.6-38.6,83.6-68.9,133.7-90.1
	c51.9-21.9,107-33.1,163.7-33.1s111.9,11.1,163.7,33.1c50.1,21.2,95.1,51.5,133.7,90.1c38.6,38.6,68.9,83.6,90.1,133.7
	c21.9,51.9,33.1,106.9,33.1,163.7c0,56.8-11.1,111.9-33.1,163.7c-21.2,50.1-51.5,95.1-90.1,133.7s-83.6,68.9-133.7,90.1
	C623.9,921.5,568.8,932.6,512,932.6z M512,123.4c-214.3,0-388.6,174.3-388.6,388.6c0,214.3,174.3,388.6,388.6,388.6
	c214.3,0,388.6-174.3,388.6-388.6C900.6,297.7,726.3,123.4,512,123.4z"/>
</svg>
