<?xml version="1.0" encoding="utf-8"?>
<!-- Generator: Adobe Illustrator 26.0.0, SVG Export Plug-In . SVG Version: 6.00 Build 0)  -->
<svg version="1.1" id="图层_1" xmlns="http://www.w3.org/2000/svg" xmlns:xlink="http://www.w3.org/1999/xlink" x="0px" y="0px"
	 viewBox="0 0 860 1024" style="enable-background:new 0 0 860 1024;" xml:space="preserve">
<path d="M732.5,808c-3.3,0-6.7-1-9.6-3.2L383.5,550.3c-12.2-9.1-19.2-23.1-19.2-38.3s7-29.2,19.2-38.3l339.4-254.5
	c7.1-5.3,17.1-3.9,22.4,3.2c5.3,7.1,3.9,17.1-3.2,22.4L402.7,499.3c-4,3-6.4,7.7-6.4,12.7s2.3,9.7,6.4,12.7l339.4,254.5
	c7.1,5.3,8.5,15.3,3.2,22.4C742.2,805.8,737.4,808,732.5,808z"/>
<path d="M604.5,808c-3.3,0-6.7-1-9.6-3.2L255.5,550.3c-12.2-9.1-19.2-23.1-19.2-38.3s7-29.2,19.2-38.3l339.4-254.5
	c7.1-5.3,17.1-3.9,22.4,3.2c5.3,7.1,3.9,17.1-3.2,22.4L274.7,499.3c-4,3-6.4,7.7-6.4,12.7s2.3,9.7,6.4,12.7l339.4,254.5
	c7.1,5.3,8.5,15.3,3.2,22.4C614.2,805.8,609.4,808,604.5,808z"/>
</svg>
