<?xml version="1.0" encoding="utf-8"?>
<!-- Generator: Adobe Illustrator 26.0.0, SVG Export Plug-In . SVG Version: 6.00 Build 0)  -->
<svg version="1.1" id="图层_1" xmlns="http://www.w3.org/2000/svg" xmlns:xlink="http://www.w3.org/1999/xlink" x="0px" y="0px"
	 viewBox="0 0 331 1024" style="enable-background:new 0 0 331 1024;" xml:space="preserve">
<style type="text/css">
	.st0{enable-background:new    ;}
</style>
<g class="st0">
	<path d="M21.5,553c0-10.2,5.1-15.4,15.4-15.4h10.2c64.8-1.4,97.3-35.5,97.3-102.4V204.8c0-41,11.9-73.4,35.8-97.3
		s56.3-35.8,97.3-35.8h15.4c10.2,0,15.4,5.1,15.4,15.4c0,10.2-5.1,15.4-15.4,15.4h-15.4c-68.3,0-102.4,34.1-102.4,102.4v230.4
		c0,60.1-23.9,99.3-71.7,117.8c47.8,18.4,71.7,57.7,71.7,117.8v230.4c0,68.3,34.1,102.4,102.4,102.4h15.4c10.2,0,15.4,5.1,15.4,15.4
		c0,10.2-5.1,15.4-15.4,15.4h-15.4c-41,0-73.4-12-97.3-35.8c-23.9-23.9-35.8-56.3-35.8-97.3V670.7c0-66.2-32.4-100.3-97.3-102.4
		H36.9C26.6,568.3,21.5,563.2,21.5,553z"/>
</g>
</svg>
