<?xml version="1.0" encoding="utf-8"?>
<!-- Generator: Adobe Illustrator 26.0.0, SVG Export Plug-In . SVG Version: 6.00 Build 0)  -->
<svg version="1.1" id="图层_1" xmlns="http://www.w3.org/2000/svg" xmlns:xlink="http://www.w3.org/1999/xlink" x="0px" y="0px"
	 viewBox="0 0 1024 1024" style="enable-background:new 0 0 1024 1024;" xml:space="preserve">
<path d="M388,912H124c-6.6,0-12-5.4-12-12V764c0-6.6,5.4-12,12-12h104c6.6,0,12-5.4,12-12V252c0-6.6,5.4-12,12-12h136
	c6.6,0,12,5.4,12,12v648C400,906.6,394.6,912,388,912z M156,880h200c6.6,0,12-5.4,12-12V284c0-6.6-5.4-12-12-12h-72
	c-6.6,0-12,5.4-12,12v488c0,6.6-5.4,12-12,12H156c-6.6,0-12,5.4-12,12v72C144,874.6,149.4,880,156,880z"/>
</svg>
