<?xml version="1.0" encoding="utf-8"?>
<!-- Generator: Adobe Illustrator 26.0.0, SVG Export Plug-In . SVG Version: 6.00 Build 0)  -->
<svg version="1.1" id="图层_1" xmlns="http://www.w3.org/2000/svg" xmlns:xlink="http://www.w3.org/1999/xlink" x="0px" y="0px"
	 viewBox="0 0 860 1024" style="enable-background:new 0 0 860 1024;" xml:space="preserve">
<path d="M472,112h264c6.6,0,12,5.4,12,12v136c0,6.6-5.4,12-12,12H632c-6.6,0-12,5.4-12,12v488c0,6.6-5.4,12-12,12H472
	c-6.6,0-12-5.4-12-12V124C460,117.4,465.4,112,472,112z M704,144H504c-6.6,0-12,5.4-12,12v584c0,6.6,5.4,12,12,12h72
	c6.6,0,12-5.4,12-12V252c0-6.6,5.4-12,12-12h104c6.6,0,12-5.4,12-12v-72C716,149.4,710.6,144,704,144z"/>
</svg>
