<?xml version="1.0" encoding="utf-8"?>
<!-- Generator: Adobe Illustrator 26.0.0, SVG Export Plug-In . SVG Version: 6.00 Build 0)  -->
<svg version="1.1" id="图层_1" xmlns="http://www.w3.org/2000/svg" xmlns:xlink="http://www.w3.org/1999/xlink" x="0px" y="0px"
	 viewBox="0 0 1024 1024" style="enable-background:new 0 0 1024 1024;" xml:space="preserve">
<path d="M636,912h264c6.6,0,12-5.4,12-12V765.3c0-4.9-3-9.3-7.5-11.1l-2.5-1c-0.3-0.1-38.3-15.8-75.6-53.4
	C777,649.9,752,586.7,752,512s25-137.9,74.4-187.8c37.2-37.6,75.2-53.2,75.6-53.4l2.5-1c4.5-1.8,7.5-6.2,7.5-11.1l0-2.7V124
	c0-6.6-5.4-12-12-12H636c-6.6,0-12,5.4-12,12v776C624,906.6,629.4,912,636,912z M868,880H668c-6.6,0-12-5.4-12-12V156
	c0-6.6,5.4-12,12-12h200c6.6,0,12,5.4,12,12v82.5c0,4.4-2.4,8.5-6.3,10.6c-16.3,8.8-42.6,25.3-69,51.6
	c-24.6,24.6-44.2,52.7-58.3,83.7C728.9,423,720,465.9,720,512c0,46.1,8.9,89,26.4,127.6c14.1,30.9,33.7,59.1,58.3,83.7
	c26.3,26.3,52.6,42.8,69,51.6c3.9,2.1,6.3,6.2,6.3,10.6V868C880,874.6,874.6,880,868,880z"/>
</svg>
