<?xml version="1.0" encoding="utf-8"?>
<!-- Generator: Adobe Illustrator 26.0.0, SVG Export Plug-In . SVG Version: 6.00 Build 0)  -->
<svg version="1.1" id="图层_1" xmlns="http://www.w3.org/2000/svg" xmlns:xlink="http://www.w3.org/1999/xlink" x="0px" y="0px"
	 viewBox="0 0 331 1024" style="enable-background:new 0 0 331 1024;" xml:space="preserve">
<style type="text/css">
	.st0{enable-background:new    ;}
</style>
<g class="st0">
	<path d="M23.5,1018.9c0-10.2,5.1-15.4,15.4-15.4h15.4c68.3,0,102.4-34.1,102.4-102.4V670.7c0-60.1,23.9-99.3,71.7-117.8
		c-47.8-18.4-71.7-57.7-71.7-117.8V204.8c0-68.3-34.1-102.4-102.4-102.4H38.9c-10.2,0-15.4-5.1-15.4-15.4c0-10.2,5.1-15.4,15.4-15.4
		h15.4c41,0,73.4,12,97.3,35.8s35.8,56.3,35.8,97.3v230.4c0,66.9,32.4,101,97.3,102.4h10.2c10.2,0,15.4,5.1,15.4,15.4
		c0,10.2-5.1,15.4-15.4,15.4h-10.2c-64.9,2-97.3,36.2-97.3,102.4v230.4c0,41-12,73.4-35.8,97.3c-23.9,23.9-56.3,35.8-97.3,35.8H38.9
		C28.7,1034.2,23.5,1029.1,23.5,1018.9z"/>
</g>
</svg>
