<?xml version="1.0" encoding="utf-8"?>
<!-- Generator: Adobe Illustrator 26.0.0, SVG Export Plug-In . SVG Version: 6.00 Build 0)  -->
<svg version="1.1" id="图层_1" xmlns="http://www.w3.org/2000/svg" xmlns:xlink="http://www.w3.org/1999/xlink" x="0px" y="0px"
	 viewBox="0 0 536 1024" style="enable-background:new 0 0 536 1024;" xml:space="preserve">
<style type="text/css">
	.st0{enable-background:new    ;}
</style>
<g class="st0">
	<path d="M79.9,583.7c0-68.3,34.1-102.4,102.4-102.4c17.8,0,34.8,5.1,51.2,15.4c16.4,10.2,30,21.5,41,33.8
		c36.2,29.4,63.5,45.4,81.9,48.1c47.8,0,71.7-23.9,71.7-71.7c0-10.2,5.1-15.4,15.4-15.4c10.2,0,15.4,5.1,15.4,15.4
		c0,68.3-34.1,102.4-102.4,102.4c-17.8,0-34.8-5.1-51.2-15.4c-16.4-9.5-30-20.5-41-32.8c-28.7-32.8-56-49.2-81.9-49.2
		c-47.8,0-71.7,23.9-71.7,71.7c0,10.2-5.1,15.4-15.4,15.4C85,599,79.9,593.9,79.9,583.7z"/>
</g>
</svg>
