<?xml version="1.0" encoding="utf-8"?>
<!-- Generator: Adobe Illustrator 26.0.0, SVG Export Plug-In . SVG Version: 6.00 Build 0)  -->
<svg version="1.1" id="图层_1" xmlns="http://www.w3.org/2000/svg" xmlns:xlink="http://www.w3.org/1999/xlink" x="0px" y="0px"
	 viewBox="0 0 899 1024" style="enable-background:new 0 0 899 1024;" xml:space="preserve">
<style type="text/css">
	.st0{enable-background:new    ;}
</style>
<g class="st0">
	<path d="M169.5,797.2C93.3,721.1,55.3,626,55.3,512s38-209.1,114.2-285.2c76.1-76.1,169.5-114.2,280.1-114.2
		s203.9,38.1,280.1,114.2S843.8,398,843.8,512s-38.1,209.1-114.2,285.2S560.1,911.3,449.5,911.3S245.6,873.3,169.5,797.2z
		 M188.9,246.8C120.3,315.7,86,404.1,86,512s34.3,196.3,102.9,265.2c68.6,69,155.5,103.4,260.6,103.4s192-34.5,260.6-103.4
		c68.6-68.9,102.9-157.3,102.9-265.2s-34.3-196.3-102.9-265.2S554.7,143.3,449.5,143.3S257.5,177.8,188.9,246.8z M294.9,690.7
		c-40.3-44.7-60.4-104.1-60.4-178.2s19.1-133.3,57.3-177.7c38.2-45.1,86-67.6,143.4-67.6s109.6,23.6,156.7,70.7
		c10.9,8.2,16.4,4.8,16.4-10.2v-41c0-10.2,5.1-15.4,15.4-15.4c10.2,0,15.4,5.1,15.4,15.4v153.6c0,10.2-5.1,15.4-15.4,15.4
		c-10.2,0-15.4-5.1-15.4-15.4v-41c-12.3-15-29-32.1-50.2-51.2C515.8,314,476.2,297,439.3,297c-50.5,0-92.2,19.5-124.9,58.4
		s-49.1,91.3-49.1,157.2s17.4,118.1,52.2,156.7C352.2,707.8,398,727,454.7,727c73,0,130.7-34.5,173.1-103.4c5.5-7.5,11.9-8.2,19.5-2
		c4.8,2.7,7.2,6.1,7.2,10.2s-1.7,8.5-5.1,13.3c-47.8,75.1-112.7,112.6-194.6,112.6C388.4,757.8,335.2,735.4,294.9,690.7z"/>
</g>
</svg>
