<?xml version="1.0" encoding="utf-8"?>
<!-- Generator: Adobe Illustrator 26.0.0, SVG Export Plug-In . SVG Version: 6.00 Build 0)  -->
<svg version="1.1" id="图层_1" xmlns="http://www.w3.org/2000/svg" xmlns:xlink="http://www.w3.org/1999/xlink" x="0px" y="0px"
	 viewBox="0 0 450 1024" style="enable-background:new 0 0 450 1024;" xml:space="preserve">
<style type="text/css">
	.st0{enable-background:new    ;}
</style>
<g class="st0">
	<path d="M104.4,441.3c-32.1-33.5-48.1-74.8-48.1-123.9s16-90.5,48.1-123.9s72.4-50.2,120.8-50.2s88.7,16.7,120.8,50.2
		c32.1,33.5,48.1,74.8,48.1,123.9s-16,90.5-48.1,123.9c-32.1,33.5-72.4,50.2-120.8,50.2S136.5,474.8,104.4,441.3z M127,215
		C100.3,242.3,87,276.5,87,317.4s13.3,75.1,39.9,102.4s59.4,41,98.3,41s71.7-13.6,98.3-41s39.9-61.4,39.9-102.4
		s-13.3-75.1-39.9-102.4c-26.6-27.3-59.4-41-98.3-41S153.6,187.7,127,215z"/>
</g>
</svg>
