<?xml version="1.0" encoding="utf-8"?>
<!-- Generator: Adobe Illustrator 26.0.0, SVG Export Plug-In . SVG Version: 6.00 Build 0)  -->
<svg version="1.1" id="图层_1" xmlns="http://www.w3.org/2000/svg" xmlns:xlink="http://www.w3.org/1999/xlink" x="0px" y="0px"
	 viewBox="0 0 274 1024" style="enable-background:new 0 0 274 1024;" xml:space="preserve">
<style type="text/css">
	.st0{enable-background:new    ;}
</style>
<g class="st0">
	<path d="M95.7,866.8c-9.2-9.2-13.8-21.7-13.8-37.4s4.6-28.2,13.8-37.4s21.7-13.8,37.4-13.8s28.2,4.6,37.4,13.8s13.8,21.7,13.8,37.4
		s-4.6,28.2-13.8,37.4c-9.2,9.2-21.7,13.8-37.4,13.8S105,876,95.7,866.8z M117.8,681V169c0-10.2,5.1-15.4,15.4-15.4
		c10.2,0,15.4,5.1,15.4,15.4v512c0,10.2-5.1,15.4-15.4,15.4C122.9,696.3,117.8,691.2,117.8,681z"/>
</g>
</svg>
