<?xml version="1.0" encoding="utf-8"?>
<!-- Generator: Adobe Illustrator 26.0.0, SVG Export Plug-In . SVG Version: 6.00 Build 0)  -->
<svg version="1.1" id="图层_1" xmlns="http://www.w3.org/2000/svg" xmlns:xlink="http://www.w3.org/1999/xlink" x="0px" y="0px"
	 viewBox="0 0 778 1024" style="enable-background:new 0 0 778 1024;" xml:space="preserve">
<style type="text/css">
	.st0{enable-background:new    ;}
</style>
<g class="st0">
	<path d="M36.9,659.5c0-10.2,5.1-15.4,15.4-15.4h149.5l66.5-264.2H121.9c-10.2,0-15.4-5.1-15.4-15.4c0-10.2,5.1-15.4,15.4-15.4
		h153.6l46.1-183.3c2.7-8.2,7.5-12.3,14.3-12.3c1.4,0,2.7,0.3,4.1,1c10.2,2.1,14,8.2,11.3,18.4l-44,176.1h244.7L598,165.9
		c2.7-8.2,7.5-12.3,14.3-12.3c1.4,0,2.7,0.3,4.1,1c10.2,2.1,14,8.2,11.3,18.4l-44,176.1H726c10.2,0,15.4,5.1,15.4,15.4
		c0,10.2-5.1,15.4-15.4,15.4H575.5L510,644.1h146.4c10.2,0,15.4,5.1,15.4,15.4c0,10.2-5.1,15.4-15.4,15.4H501.8l-45.1,183.3
		c-2.7,8.2-7.5,12.3-14.3,12.3c-1.4,0-2.8-0.3-4.1-1c-10.2-2-14-8.2-11.2-18.4l44-176.1H225.3l-45.1,183.3
		c-2.7,8.2-7.5,12.3-14.3,12.3c-1.4,0-2.7-0.3-4.1-1c-10.2-2-14-8.2-11.3-18.4l44-176.1H52.2C42,674.8,36.9,669.7,36.9,659.5z
		 M233.5,644.1h244.7l66.6-264.2H299L233.5,644.1z"/>
</g>
</svg>
