<?xml version="1.0" encoding="utf-8"?>
<!-- Generator: Adobe Illustrator 26.0.0, SVG Export Plug-In . SVG Version: 6.00 Build 0)  -->
<svg version="1.1" id="图层_1" xmlns="http://www.w3.org/2000/svg" xmlns:xlink="http://www.w3.org/1999/xlink" x="0px" y="0px"
	 viewBox="0 0 638 1024" style="enable-background:new 0 0 638 1024;" xml:space="preserve">
<style type="text/css">
	.st0{enable-background:new    ;}
</style>
<g class="st0">
	<path d="M303.1,878.6c-71-6.8-135.9-35.1-194.6-85c-10.9-8.9-16.4-5.5-16.4,10.2V855c0,10.2-5.1,15.4-15.4,15.4
		c-10.2,0-15.4-5.1-15.4-15.4V660.5c0-10.2,5.1-15.4,15.4-15.4c10.2,0,15.4,5.1,15.4,15.4v76.8c35.5,40.3,83.6,72,144.4,95.2
		c19.8,7.5,42,12.6,66.6,15.4V516.1c-65.5-17.8-113.8-34.3-144.9-49.7c-31.1-15.4-55-34.3-71.7-56.8s-25.1-48.5-25.1-77.8
		c0-57.3,18.8-103.1,56.3-137.2c37.5-34.1,97.3-51.2,179.2-51.2h6.2V87c0-10.2,5.1-15.4,15.4-15.4c10.2,0,15.4,5.1,15.4,15.4v58.4
		c60.8,9.6,111.6,29,152.6,58.4c14.3,10.2,25.6,18.8,33.8,25.6c12.3,9.6,18.1,6.5,17.4-9.2V169c0-10.2,5.1-15.4,15.4-15.4
		c10.2,0,15.4,5.1,15.4,15.4v194.6c0,10.2-5.1,15.4-15.4,15.4c-10.2,0-15.4-5.1-15.4-15.4v-71.7c-37.5-43-84.7-76.1-141.3-99.3
		c-19.1-8.2-39.9-13.6-62.5-16.4v312.3c2,0.7,22,6,59.9,15.9c37.9,9.9,72.4,22.5,103.4,37.9s55,34.3,71.7,56.8s25.1,49.5,25.1,80.9
		c0,61.5-21.5,110.3-64.5,146.4c-43,36.2-105.1,54.3-186.4,54.3h-9.2V937c0,10.2-5.1,15.4-15.4,15.4c-10.2,0-15.4-5.1-15.4-15.4
		V878.6z M117.2,392.2c16.7,19.8,37.2,35.2,61.4,46.1s47.1,19.5,68.6,25.6c21.5,6.2,40.1,11.6,55.8,16.4V174.1H297
		c-69.6,0-121.2,14.3-154.6,43s-50.2,63.8-50.2,105.5C92.2,349.2,100.5,372.4,117.2,392.2z M343,849.9c71,0,125.4-15.2,163.3-45.6
		s56.8-69.8,56.8-118.3c0-26.6-8.4-49.8-25.1-69.6s-37.2-35.2-61.4-46.1c-24.2-10.9-48.7-19.8-73.2-26.6
		c-24.6-6.8-47.8-13.3-69.6-19.5v325.6H343z"/>
</g>
</svg>
