<?xml version="1.0" encoding="utf-8"?>
<!-- Generator: Adobe Illustrator 26.0.0, SVG Export Plug-In . SVG Version: 6.00 Build 0)  -->
<svg version="1.1" id="图层_1" xmlns="http://www.w3.org/2000/svg" xmlns:xlink="http://www.w3.org/1999/xlink" x="0px" y="0px"
	 viewBox="0 0 802 1024" style="enable-background:new 0 0 802 1024;" xml:space="preserve">
<style type="text/css">
	.st0{enable-background:new    ;}
</style>
<g class="st0">
	<path d="M86,441.3c-32.1-33.5-48.1-74.8-48.1-123.9S53.9,227,86,193.5c32.1-33.5,72.4-50.2,120.8-50.2s88.7,16.7,120.8,50.2
		s48.1,74.8,48.1,123.9s-16,90.5-48.1,123.9s-72.4,50.2-120.8,50.2S118.1,474.8,86,441.3z M108.5,215
		c-26.6,27.3-39.9,61.4-39.9,102.4s13.3,75.1,39.9,102.4s59.4,41,98.3,41s71.7-13.6,98.3-41s39.9-61.4,39.9-102.4
		s-13.3-75.1-39.9-102.4c-26.6-27.3-59.4-41-98.3-41S135.2,187.7,108.5,215z M165.9,846.8l443.4-685.1c3.4-4.8,7.2-7.2,11.3-7.2
		s7.2,0.7,9.2,2c9.5,6.8,10.9,13.7,4.1,20.5L191.5,863.2c-6.2,7.5-12.6,9.2-19.5,5.1c-6.8-4.1-10.2-7.5-10.2-10.2
		C161.8,854,163.2,850.2,165.9,846.8z M475.1,830.5C443,797,427,755.7,427,706.6s16-90.5,48.1-123.9c32.1-33.5,72.4-50.2,120.8-50.2
		s88.7,16.7,120.8,50.2c32.1,33.5,48.1,74.8,48.1,123.9s-16,90.5-48.1,123.9c-32.1,33.5-72.4,50.2-120.8,50.2
		S507.2,863.9,475.1,830.5z M497.7,604.2c-26.6,27.3-39.9,61.4-39.9,102.4c0,41,13.3,75.1,39.9,102.4s59.4,41,98.3,41
		c38.9,0,71.7-13.6,98.3-41s39.9-61.4,39.9-102.4c0-41-13.3-75.1-39.9-102.4s-59.4-41-98.3-41C557,563.2,524.3,576.8,497.7,604.2z"
		/>
</g>
</svg>
