<?xml version="1.0" encoding="utf-8"?>
<!-- Generator: Adobe Illustrator 26.0.0, SVG Export Plug-In . SVG Version: 6.00 Build 0)  -->
<svg version="1.1" id="图层_1" xmlns="http://www.w3.org/2000/svg" xmlns:xlink="http://www.w3.org/1999/xlink" x="0px" y="0px"
	 viewBox="0 0 715 1024" style="enable-background:new 0 0 715 1024;" xml:space="preserve">
<style type="text/css">
	.st0{enable-background:new    ;}
</style>
<g class="st0">
	<path d="M348.2,143.3c38.9,0,73.9,9.2,105,27.7s55.5,42,73.2,70.7c4.8,7.5,2.9,13.8-5.6,19s-16.2,3.2-23-5.6
		c-19.8-25.2-41.3-45-64.5-59.4c-23.2-14.3-55-21.5-95.2-21.5s-74.2,11.8-101.9,35.3c-27.7,23.6-41.5,52.7-41.5,87.5
		c0,44.4,25.9,95.6,77.8,153.6l217.1,245.8c6.1,6.8,11.6,6.8,16.4,0L626.7,514c6.1-7.5,13.5-8.5,22-3.1c8.5,5.5,9.4,12.6,2.6,21.5
		L527.4,717.8c-5.5,7.5-4.8,15,2,22.5l73.7,84c8.9,10.2,17.4,15.4,25.6,15.4h67.6c10.2,0,15.4,5.1,15.4,15.4
		c0,10.2-5.1,15.4-15.4,15.4h-81.9c-8.9,0-17.8-5.1-26.6-15.4L511,768c-7.5-6.8-13.6-6.8-18.4,0c-64.9,81.9-147.1,122.9-246.8,122.9
		c-58,0-105.8-17.8-143.4-53.2c-37.6-35.5-56.3-80.9-56.3-136.2s17.4-100.2,52.2-134.7s84.3-59.2,148.5-74.2
		c10.2-3.4,10.6-10.6,1-21.5c-23.9-28.7-43.9-56.8-59.9-84.5c-16-27.6-24.1-57.5-24.1-89.6c0-47.1,16.4-84.5,49.1-112.1
		S290.8,143.3,348.2,143.3z M76.8,696.3c0,48.5,15.7,88.1,47.1,118.8c32.1,30,72.7,45.1,121.9,45.1c88.7,0,163.5-37.9,224.2-113.7
		c4.1-4.8,6.1-9,6.1-12.8s-1.7-7.3-5.1-10.8L292.9,522.2c-2.7-4.8-6.3-7.2-10.8-7.2s-9.4,0.7-14.8,2
		C140.3,551.2,76.8,611,76.8,696.3z"/>
</g>
</svg>
