<?xml version="1.0" encoding="utf-8"?>
<!-- Generator: Adobe Illustrator 26.0.0, SVG Export Plug-In . SVG Version: 6.00 Build 0)  -->
<svg version="1.1" id="图层_1" xmlns="http://www.w3.org/2000/svg" xmlns:xlink="http://www.w3.org/1999/xlink" x="0px" y="0px"
	 viewBox="0 0 287 1024" style="enable-background:new 0 0 287 1024;" xml:space="preserve">
<style type="text/css">
	.st0{enable-background:new    ;}
</style>
<g class="st0">
	<path d="M77.8,604.2V501.8c0-86.7,12.6-167.2,37.9-241.7s57-134.5,95.2-180.2c4.8-4.8,9.2-7.2,13.3-7.2l9.2,3.1
		c4.8,4.1,7.2,7.9,7.2,11.3c0,3.4-1.4,6.5-4.1,9.2c-36.9,44.4-67.4,101.4-91.7,171s-36.3,147.8-36.3,234.5v102.4
		c0,86.7,12.1,165.2,36.3,235.5s54.8,127,91.7,170c2.7,2.7,4.1,5.8,4.1,9.2c0,3.4-2,6.5-6.1,9.2c-4.1,3.4-7.5,5.1-10.2,5.1
		l-13.3-7.2c-38.2-45.7-70-105.8-95.2-180.2C90.5,771.4,77.8,690.9,77.8,604.2z"/>
</g>
</svg>
