<?xml version="1.0" encoding="utf-8"?>
<!-- Generator: Adobe Illustrator 26.0.0, SVG Export Plug-In . SVG Version: 6.00 Build 0)  -->
<svg version="1.1" id="图层_1" xmlns="http://www.w3.org/2000/svg" xmlns:xlink="http://www.w3.org/1999/xlink" x="0px" y="0px"
	 viewBox="0 0 287 1024" style="enable-background:new 0 0 287 1024;" xml:space="preserve">
<style type="text/css">
	.st0{enable-background:new    ;}
</style>
<g class="st0">
	<path d="M51.2,1009.7c36.9-43,67.4-99.7,91.6-170s36.4-148.8,36.4-235.5V501.8c0-86.7-12.1-164.9-36.4-234.5s-54.8-126.6-91.6-171
		c-2.7-2.7-4.1-5.8-4.1-9.2c0-3.4,2-6.5,6.1-9.2c4.1-2.7,7.5-4.4,10.2-5.1l13.3,7.2c38.2,45.8,70,105.8,95.2,180.2
		c25.2,74.4,37.9,155,37.9,241.7v102.4c0,86.7-12.6,167.3-37.9,241.7c-25.3,74.4-57,134.5-95.2,180.2c-4.8,4.8-9.2,7.2-13.3,7.2
		l-9.2-3.1c-4.8-4.1-7.2-8.2-7.2-12.3C47.1,1015.1,48.5,1012.4,51.2,1009.7z"/>
</g>
</svg>
