<?xml version="1.0" encoding="utf-8"?>
<!-- Generator: Adobe Illustrator 26.0.0, SVG Export Plug-In . SVG Version: 6.00 Build 0)  -->
<svg version="1.1" id="图层_1" xmlns="http://www.w3.org/2000/svg" xmlns:xlink="http://www.w3.org/1999/xlink" x="0px" y="0px"
	 viewBox="0 0 458 1024" style="enable-background:new 0 0 458 1024;" xml:space="preserve">
<style type="text/css">
	.st0{enable-background:new    ;}
</style>
<g class="st0">
	<path d="M71.7,410.6c-2.1-3.4-3.1-7.2-3.1-11.2s3.1-7.5,9.2-10.2l109.6-62.5c3.4-1.4,5.1-3.6,5.1-6.7c0-3.1-1.7-5.6-5.1-7.7
		L77.8,249.8c-6.2-2.7-9.2-6.1-9.2-10.2s1-7.8,3.1-11.3c4.8-8.9,11.9-10.6,21.5-5.1l104.4,61.4c10.9,6.2,16.4,3.4,16.4-8.2V169
		c0-10.2,5.1-15.4,15.4-15.4c10.2,0,15.4,5.1,15.4,15.4v107.5c0,11.6,5.5,14.3,16.4,8.2l104.4-61.4c9.6-5.5,16.7-3.8,21.5,5.1
		c2,3.4,3.1,7.2,3.1,11.3s-3.1,7.5-9.2,10.2l-109.6,62.5c-3.4,2-5.1,4.6-5.1,7.7c0,3.1,1.7,5.3,5.1,6.7l109.6,62.5
		c6.1,2.7,9.2,6.2,9.2,10.2s-1,7.8-3.1,11.2c-4.8,8.9-12,10.6-21.5,5.1l-104.4-60.4c-10.9-6.1-16.4-3.4-16.4,8.2v102.4
		c0,10.2-5.1,15.4-15.4,15.4c-10.2,0-15.4-5.1-15.4-15.4V363.5c0-11.6-5.5-14.3-16.4-8.2L93.2,415.7
		C83.6,421.2,76.5,419.5,71.7,410.6z"/>
</g>
</svg>
