<?xml version="1.0" encoding="utf-8"?>
<!-- Generator: Adobe Illustrator 26.0.0, SVG Export Plug-In . SVG Version: 6.00 Build 0)  -->
<svg version="1.1" id="图层_1" xmlns="http://www.w3.org/2000/svg" xmlns:xlink="http://www.w3.org/1999/xlink" x="0px" y="0px"
	 viewBox="0 0 513 1024" style="enable-background:new 0 0 513 1024;" xml:space="preserve">
<style type="text/css">
	.st0{enable-background:new    ;}
</style>
<g class="st0">
	<path d="M41,542.7c0-10.2,5.1-15.4,15.4-15.4h163.8c10.2,0,15.4-5.1,15.4-15.4V343c0-10.2,5.1-15.4,15.4-15.4
		c10.2,0,15.4,5.1,15.4,15.4v169c0,10.2,5.1,15.4,15.4,15.4h174.1c10.2,0,15.4,5.1,15.4,15.4s-5.1,15.4-15.4,15.4H281.6
		c-10.2,0-15.4,5.1-15.4,15.4v169c0,10.2-5.1,15.4-15.4,15.4c-10.2,0-15.4-5.1-15.4-15.4v-169c0-10.2-5.1-15.4-15.4-15.4H56.3
		C46.1,558.1,41,553,41,542.7z"/>
</g>
</svg>
