<?xml version="1.0" encoding="utf-8"?>
<!-- Generator: Adobe Illustrator 26.0.0, SVG Export Plug-In . SVG Version: 6.00 Build 0)  -->
<svg version="1.1" id="图层_1" xmlns="http://www.w3.org/2000/svg" xmlns:xlink="http://www.w3.org/1999/xlink" x="0px" y="0px"
	 viewBox="0 0 669 1024" style="enable-background:new 0 0 669 1024;" xml:space="preserve">
<style type="text/css">
	.st0{enable-background:new    ;}
</style>
<g class="st0">
	<path d="M140.8,783.4C89.2,718.5,63.5,628.1,63.5,512s25.8-206.5,77.3-271.4c51.5-64.8,116.2-97.3,194-97.3
		c77.8,0,142.5,32.4,194,97.3c51.5,64.9,77.3,155.3,77.3,271.4s-25.8,206.5-77.3,271.4c-51.5,64.8-116.2,97.3-194,97.3
		C257,880.6,192.3,848.2,140.8,783.4z M163.3,262.7c-46.1,59-69.1,142.2-69.1,249.3s23,190.3,69.1,249.3
		c46.1,59,103.2,88.6,171.5,88.6s125.4-29.5,171.5-88.6s69.1-142.2,69.1-249.3s-23-190.3-69.1-249.3s-103.2-88.6-171.5-88.6
		S209.4,203.6,163.3,262.7z"/>
</g>
</svg>
