<?xml version="1.0" encoding="utf-8"?>
<!-- Generator: Adobe Illustrator 26.0.0, SVG Export Plug-In . SVG Version: 6.00 Build 0)  -->
<svg version="1.1" id="图层_1" xmlns="http://www.w3.org/2000/svg" xmlns:xlink="http://www.w3.org/1999/xlink" x="0px" y="0px"
	 viewBox="0 0 354 1024" style="enable-background:new 0 0 354 1024;" xml:space="preserve">
<style type="text/css">
	.st0{enable-background:new    ;}
</style>
<g class="st0">
	<path d="M54.3,302.1c-7.5,7.5-14,8.2-19.5,2s-8.2-11.1-8.2-14.8s2.4-7.3,7.2-10.8L164.9,169c14.3-10.2,23.6-15.4,27.7-15.4
		c13.6,0,20.5,5.1,20.5,15.4v655.4c0,10.2,5.1,15.4,15.4,15.4H300c10.2,0,15.4,5.1,15.4,15.4c0,10.2-5.1,15.4-15.4,15.4H95.2
		c-10.2,0-15.4-5.1-15.4-15.4c0-10.2,5.1-15.4,15.4-15.4h71.7c10.2,0,15.4-5.1,15.4-15.4V204.8c0-6.8-4.8-6.8-14.3,0L54.3,302.1z"/>
</g>
</svg>
