<?xml version="1.0" encoding="utf-8"?>
<!-- Generator: Adobe Illustrator 26.0.0, SVG Export Plug-In . SVG Version: 6.00 Build 0)  -->
<svg version="1.1" id="图层_1" xmlns="http://www.w3.org/2000/svg" xmlns:xlink="http://www.w3.org/1999/xlink" x="0px" y="0px"
	 viewBox="0 0 609 1024" style="enable-background:new 0 0 609 1024;" xml:space="preserve">
<style type="text/css">
	.st0{enable-background:new    ;}
</style>
<g class="st0">
	<path d="M307.2,143.3c72.4,0,129.7,19.5,172,58.4c42.3,38.9,63.5,82.3,63.5,130.1s-15.5,89.4-46.6,124.9s-68.8,66.2-113.2,92.2
		l-131.1,71.7c-43.7,23.2-81.2,50-112.6,80.4s-47.1,63-47.1,97.8v25.6c0,10.2,5.1,15.4,15.4,15.4h389.1c10.2,0,15.4-5.1,15.4-15.4
		V711.7c0-10.2,5.1-15.4,15.4-15.4c10.2,0,15.4,5.1,15.4,15.4V855c0,10.2-5.1,15.4-15.4,15.4H76.8c-10.2,0-15.4-5.1-15.4-15.4v-56.3
		c0-54.6,32.8-107.2,98.3-157.7c19.1-15,39.6-28.3,61.4-39.9l131.1-72.7c43.7-23.2,81.2-51,112.6-83.5
		c31.4-32.4,47.1-69.3,47.1-110.6c0-41.3-18.4-78.3-55.3-111.1c-36.9-32.8-86.7-49.1-149.5-49.1c-41.7,0-82.1,7.9-121.4,23.5
		c-39.2,15.7-73.6,38.9-102.9,69.6c-7.5,7.5-14,8.5-19.5,3.1c-5.5-5.5-8.2-9.9-8.2-13.3c0-3.4,2-7.2,6.1-11.3
		C131.1,177.5,213,143.3,307.2,143.3z"/>
</g>
</svg>
