<?xml version="1.0" encoding="utf-8"?>
<!-- Generator: Adobe Illustrator 26.0.0, SVG Export Plug-In . SVG Version: 6.00 Build 0)  -->
<svg version="1.1" id="图层_1" xmlns="http://www.w3.org/2000/svg" xmlns:xlink="http://www.w3.org/1999/xlink" x="0px" y="0px"
	 viewBox="0 0 615 1024" style="enable-background:new 0 0 615 1024;" xml:space="preserve">
<style type="text/css">
	.st0{enable-background:new    ;}
</style>
<g class="st0">
	<path d="M299,143.3c73,0,130.2,18.1,171.5,54.3c41.3,36.2,62,81.2,62,135.2c0,81.9-42.7,135.8-128,161.8
		c47.8,8.2,84.5,28.7,110.1,61.5S553,628.7,553,675.8c0,62.1-22.2,112-66.5,149.5c-44.4,36.9-104.1,55.3-179.2,55.3
		c-94.2,0-176.1-34.1-245.8-102.4c-4.1-4.1-6.1-7.5-6.1-10.2s1.4-5.5,4.1-8.2c8.9-8.9,16.7-9.9,23.5-3.1
		c29.3,30.7,63.7,53.9,102.9,69.6c39.2,15.7,79.7,23.5,121.4,23.5c67.6,0,120.3-15.5,158.2-46.6c37.9-31.1,56.8-72.9,56.8-125.4
		s-16-93.4-48.1-122.4c-32.1-29-74.1-43.5-126-43.5H240.6c-10.2,0-15.4-5.1-15.4-15.4c0-10.2,5.1-15.4,15.4-15.4h87
		c53.2,0,95.6-13.6,127-41s47.1-63.8,47.1-109.6s-18.4-83.3-55.3-112.6c-36.9-29.3-86-44-147.5-44c-38.9,0-76,8-111.1,24.1
		c-35.2,16-66,35.7-92.7,58.9c-7.5,6.8-14.9,6.7-22-0.5c-7.2-7.2-7-14.2,0.5-21c30-25.9,63.3-47.8,99.8-65.5S251.9,143.3,299,143.3z
		"/>
</g>
</svg>
