<?xml version="1.0" encoding="utf-8"?>
<!-- Generator: Adobe Illustrator 26.0.0, SVG Export Plug-In . SVG Version: 6.00 Build 0)  -->
<svg version="1.1" id="图层_1" xmlns="http://www.w3.org/2000/svg" xmlns:xlink="http://www.w3.org/1999/xlink" x="0px" y="0px"
	 viewBox="0 0 591 1024" style="enable-background:new 0 0 591 1024;" xml:space="preserve">
<style type="text/css">
	.st0{enable-background:new    ;}
</style>
<g class="st0">
	<path d="M16.4,689.1c-1.4-1.4-2-3.4-2-6.1c0-2.7,1-6.1,3.1-10.2C78.2,582,115.7,523.2,130,496.6c51.9-98.3,77.8-217.8,77.8-358.4
		c0-10.2,5.1-15.4,15.4-15.4c10.2,0,15.4,5.1,15.4,15.4c-0.7,120.8-17.4,220.8-50.2,300c-17.8,41.7-35,77.2-51.7,106.5
		c-16.7,29.4-39.8,64.5-69.1,105.5c-4.8,10.2-1,15.4,11.3,15.4h339c10.2,0,15.4-5.1,15.4-15.4V357.4c0-10.2,5.1-15.4,15.4-15.4
		c10.2,0,15.4,5.1,15.4,15.4v292.9c0,10.2,5.1,15.4,15.4,15.4h81.9c10.2,0,15.4,5.1,15.4,15.4c0,10.2-5.1,15.4-15.4,15.4h-81.9
		c-10.2,0-15.4,5.1-15.4,15.4v153.6c0,10.2-5.1,15.4-15.4,15.4c-10.2,0-15.4-5.1-15.4-15.4V711.7c0-10.2-5.1-15.4-15.4-15.4H28.7
		C22.5,696.3,18.4,693.9,16.4,689.1z"/>
</g>
</svg>
