<?xml version="1.0" encoding="utf-8"?>
<!-- Generator: Adobe Illustrator 26.0.0, SVG Export Plug-In . SVG Version: 6.00 Build 0)  -->
<svg version="1.1" id="图层_1" xmlns="http://www.w3.org/2000/svg" xmlns:xlink="http://www.w3.org/1999/xlink" x="0px" y="0px"
	 viewBox="0 0 585 1024" style="enable-background:new 0 0 585 1024;" xml:space="preserve">
<style type="text/css">
	.st0{enable-background:new    ;}
</style>
<g class="st0">
	<path d="M71.7,169c0-10.2,5.1-15.4,15.4-15.4h399.4c10.2,0,15.4,5.1,15.4,15.4c0,10.2-5.1,15.4-15.4,15.4H117.8
		c-10.2,0-15.4,5.1-15.4,15.4v240.6c0,13.7,5.1,17.8,15.4,12.3c53.9-28.7,111.3-43,172-43c80.5,0,142,20.1,184.3,60.4
		c42.3,40.3,63.5,95.2,63.5,164.9c0,86-41.3,151.9-123.9,197.6c-82.6,45.7-189.8,68.6-321.5,68.6c-10.2,0-15.4-5.1-15.4-15.4
		c0-10.2,5.1-15.4,15.4-15.4c163.2,0,281.2-34.1,354.3-102.4c40.3-36.2,60.4-82.4,60.4-138.7s-18.6-101.9-55.8-136.7
		s-91.3-52.2-162.3-52.2s-133.1,18.4-186.4,55.3c-9.6,4.1-15,6.1-16.4,6.1c-9.6,0-14.3-5.1-14.3-15.4V169z"/>
</g>
</svg>
