<?xml version="1.0" encoding="utf-8"?>
<!-- Generator: Adobe Illustrator 26.0.0, SVG Export Plug-In . SVG Version: 6.00 Build 0)  -->
<svg version="1.1" id="图层_1" xmlns="http://www.w3.org/2000/svg" xmlns:xlink="http://www.w3.org/1999/xlink" x="0px" y="0px"
	 viewBox="0 0 611 1024" style="enable-background:new 0 0 611 1024;" xml:space="preserve">
<style type="text/css">
	.st0{enable-background:new    ;}
</style>
<g class="st0">
	<path d="M126,384c-3.4,10.2,1,15.4,13.3,15.4H297c85.3,0,152.2,21.5,200.7,64.5c48.5,43,72.7,101,72.7,174.1s-22,131.8-66.1,176.1
		s-104.5,66.5-181.2,66.5S183,852.8,133.1,797.2c-49.8-55.6-74.8-133.6-74.8-234c0-121.5,37.9-225.3,113.7-311.3
		c75.8-86,174.4-129,295.9-129c10.2,0,15.4,5.1,15.4,15.4c0,10.2-5.1,15.4-15.4,15.4c-133.1,0-237.9,58.7-314.4,176.1
		C141.3,348.8,132.1,366.9,126,384z M104.5,445.4c-10.2,34.1-15.4,73.4-15.4,117.8c0,91.5,21.8,162.1,65.5,212
		c43.7,49.8,100,74.8,169,74.8s122.2-19.1,159.8-57.3c37.5-38.2,56.3-89.8,56.3-154.6c0-64.8-20.7-115.7-62-152.6
		s-103.2-55.3-185.8-55.3H124.9C115.4,430.1,108.5,435.2,104.5,445.4z"/>
</g>
</svg>
