<?xml version="1.0" encoding="utf-8"?>
<!-- Generator: Adobe Illustrator 26.0.0, SVG Export Plug-In . SVG Version: 6.00 Build 0)  -->
<svg version="1.1" id="图层_1" xmlns="http://www.w3.org/2000/svg" xmlns:xlink="http://www.w3.org/1999/xlink" x="0px" y="0px"
	 viewBox="0 0 480 1024" style="enable-background:new 0 0 480 1024;" xml:space="preserve">
<style type="text/css">
	.st0{enable-background:new    ;}
</style>
<g class="st0">
	<path d="M465.9,153.6c9.5,0,14.3,4.4,14.3,13.3c0,2.7-1,6.1-3.1,10.2l-75.8,127c-60.1,103.8-103.8,193.2-131.1,268.3
		C233.5,674.8,215,769,215,855c0,10.2-5.1,15.4-15.4,15.4s-15.4-5.1-15.4-15.4c0-177.5,82.3-395.9,246.8-655.4
		c4.8-10.2,1-15.4-11.3-15.4H46.1c-10.2,0-15.4,5.1-15.4,15.4v112.6c0,10.2-5.1,15.4-15.4,15.4C5.1,327.7,0,322.6,0,312.3V169
		c0-10.2,5.1-15.4,15.4-15.4H465.9z"/>
</g>
</svg>
