<?xml version="1.0" encoding="utf-8"?>
<!-- Generator: Adobe Illustrator 26.0.0, SVG Export Plug-In . SVG Version: 6.00 Build 0)  -->
<svg version="1.1" id="图层_1" xmlns="http://www.w3.org/2000/svg" xmlns:xlink="http://www.w3.org/1999/xlink" x="0px" y="0px"
	 viewBox="0 0 659 1024" style="enable-background:new 0 0 659 1024;" xml:space="preserve">
<style type="text/css">
	.st0{enable-background:new    ;}
</style>
<g class="st0">
	<path d="M107.5,583.7c13-10.2,23.4-18.1,31.2-23.5c7.8-5.5,21.2-12.5,39.9-21c18.8-8.5,32.1-14.2,39.9-16.9
		c7.8-2.7,22.7-8.2,44.5-16.4c8.2-3.4,8.2-6.8,0-10.2c-70.3-28.7-117.1-56.3-140.3-83c-22.5-26.6-33.8-58.3-33.8-95.2
		c0-51.2,21-93,63-125.5c42-32.4,101.2-48.6,177.7-48.6c76.5,0,135.7,16.2,177.7,48.6c42,32.4,63,75.3,63,128.5
		c-0.7,53.2-26.3,95.6-76.8,127c-25.2,15.7-57.7,31.8-97.3,48.1c-8.2,3.4-8.2,6.8,0,10.2c68.3,26,113,46.4,134.2,61.4
		c47.1,31.4,70.7,74.1,70.7,128s-25.4,98.3-76.3,133.1s-115.9,52.2-195.1,52.2s-144.2-17.4-195.1-52.2
		c-50.9-34.8-76.3-77.8-76.3-129S74.8,609.6,107.5,583.7z M89.1,696.3c0,45.8,22.2,82.8,66.5,111.1s102.4,42.5,174.1,42.5
		s129.7-14.2,174.1-42.5s66.6-65.4,66.6-111.1c0-33.4-10.2-60.4-30.7-80.9L519.2,596c-20.5-17.8-60.4-36.5-119.8-56.3l-34.8-11.3
		c-17.8-5.5-29.4-9.2-34.8-11.3c-5.5,2.1-17.1,5.8-34.8,11.3l-34.8,11.3c-33.5,10.9-60.4,21.8-80.9,32.8
		c-20.5,10.9-33.5,18.8-38.9,23.5l-20.5,19.5C99.3,635.9,89.1,662.9,89.1,696.3z M119.8,317.4c0,51.9,30.7,92.8,92.2,122.9
		c29.3,14.3,68.6,29,117.8,44c84-25.9,139.9-51.5,167.9-76.8c28-25.2,42-57.3,42-96.2s-17.8-71.5-53.2-97.8s-87.7-39.4-156.7-39.4
		S208.5,187.2,173,213.5S119.8,274.4,119.8,317.4z"/>
</g>
</svg>
