<?xml version="1.0" encoding="utf-8"?>
<!-- Generator: Adobe Illustrator 26.0.0, SVG Export Plug-In . SVG Version: 6.00 Build 0)  -->
<svg version="1.1" id="图层_1" xmlns="http://www.w3.org/2000/svg" xmlns:xlink="http://www.w3.org/1999/xlink" x="0px" y="0px"
	 viewBox="0 0 611 1024" style="enable-background:new 0 0 611 1024;" xml:space="preserve">
<style type="text/css">
	.st0{enable-background:new    ;}
</style>
<g class="st0">
	<path d="M415.8,749.6c34.8-38.9,57-72.4,66.5-100.4c4.1-11.6,4.8-18.6,2-21s-6.8-3.6-12.3-3.6H314.4c-85.3,0-152.2-21.5-200.7-64.5
		S41,459.3,41,386.6s21.8-131.4,65.5-176.1s103.9-67.1,180.8-67.1c76.8,0,140.5,27.7,191,83c49.8,56,74.8,134.2,74.8,234.5
		c0,121.5-37.9,225.3-113.7,311.3c-75.8,86-174.4,129-295.9,129c-10.2,0-15.4-5.1-15.4-15.4c0-10.2,5.1-15.4,15.4-15.4
		C253.3,870.4,344.1,830.1,415.8,749.6z M486.4,593.9c10.2,0,16.7-4.1,19.5-12.3c5.5-13.7,9.5-33.8,12.3-60.4
		c2.7-26.6,4.1-46.8,4.1-60.4c0-91.5-21.8-162.1-65.5-212C413,199,356.5,174.1,287.2,174.1c-69.3,0-122.5,19.1-159.8,57.3
		C90.3,269.7,71.7,321,71.7,385.5c0,64.5,20.6,115.4,61.9,152.6s103.2,55.8,185.9,55.8H486.4z"/>
</g>
</svg>
