<?xml version="1.0" encoding="utf-8"?>
<!-- Generator: Adobe Illustrator 26.0.0, SVG Export Plug-In . SVG Version: 6.00 Build 0)  -->
<svg version="1.1" id="图层_1" xmlns="http://www.w3.org/2000/svg" xmlns:xlink="http://www.w3.org/1999/xlink" x="0px" y="0px"
	 viewBox="0 0 510 1024" style="enable-background:new 0 0 510 1024;" xml:space="preserve">
<style type="text/css">
	.st0{enable-background:new    ;}
</style>
<g class="st0">
	<path d="M33.8,614.9c0-7.2,3.4-12.8,10.2-16.9l385-221.2c3.4-2.7,7.2-4.1,11.2-4.1s7.2,2.4,9.2,7.2c2.7,4.8,4.1,9.2,4.1,13.3
		s-2.7,7.5-8.2,10.2L94.2,606.2c-9.6,6.2-9.6,12.3,0,18.4l351.2,201.7c5.5,4.1,8.2,7.9,8.2,11.3c0,3.4-1.4,7.5-4.1,12.3
		c-2,4.8-5.1,7.2-9.2,7.2s-7.8-1.4-11.2-4.1l-384-221.2C37.5,627.7,33.8,622.1,33.8,614.9z"/>
</g>
</svg>
