<?xml version="1.0" encoding="utf-8"?>
<!-- Generator: Adobe Illustrator 26.0.0, SVG Export Plug-In . SVG Version: 6.00 Build 0)  -->
<svg version="1.1" id="图层_1" xmlns="http://www.w3.org/2000/svg" xmlns:xlink="http://www.w3.org/1999/xlink" x="0px" y="0px"
	 viewBox="0 0 510 1024" style="enable-background:new 0 0 510 1024;" xml:space="preserve">
<style type="text/css">
	.st0{enable-background:new    ;}
</style>
<g class="st0">
	<path d="M81.9,853c-3.4,2.7-7,4.1-10.8,4.1s-7-2.4-9.7-7.2c-2.7-4.8-4.1-8.9-4.1-12.3c0-3.4,2.7-7.2,8.2-11.3l351.2-201.7
		c8.9-6.1,8.9-12.3,0-18.4L65.5,403.5c-5.5-2.7-8.2-6.2-8.2-10.2s1.4-8.5,4.1-13.3c2.7-4.8,6-7.2,9.7-7.2s7.3,1.4,10.8,4.1
		l385,221.2c6.8,4.1,10.2,9.8,10.2,16.9c0,7.2-3.8,12.8-11.3,16.9L81.9,853z"/>
</g>
</svg>
