<?xml version="1.0" encoding="utf-8"?>
<!-- Generator: Adobe Illustrator 26.0.0, SVG Export Plug-In . SVG Version: 6.00 Build 0)  -->
<svg version="1.1" id="图层_1" xmlns="http://www.w3.org/2000/svg" xmlns:xlink="http://www.w3.org/1999/xlink" x="0px" y="0px"
	 viewBox="0 0 944 1024" style="enable-background:new 0 0 944 1024;" xml:space="preserve">
<style type="text/css">
	.st0{enable-background:new    ;}
</style>
<g class="st0">
	<path d="M175.6,934.9C93.3,848.2,52.2,738,52.2,604.2c0-133.8,41-244,122.9-330.8c82.6-86.7,183.3-130.1,302.1-130.1
		s219.3,43.4,301.6,130.1c82.2,86.7,123.4,197,123.4,330.8c0,84-14,151-42,201.2c-28,50.2-64.5,75.2-109.6,75.2
		c-54.6,0-91.1-27.3-109.6-81.9c-4.1-14.3-9.6-17.7-16.4-10.2c-54.6,61.4-112.3,92.2-173.1,92.2S338.9,857.4,295.9,811
		c-43-46.4-64.5-112-64.5-196.6c0-84.6,21.5-150.2,64.5-196.6c43-46.4,94.9-69.6,155.6-69.6s118.4,30.7,173.1,92.2
		c5.5,5.5,9.5,6.8,12.3,4.1c2.7-2.7,4.1-7.5,4.1-14.3v-56.3c0-10.2,5.1-15.4,15.4-15.4c10.2,0,15.4,5.1,15.4,15.4v384
		c0,30,7,52.9,21,68.6c14,15.7,33.3,23.5,57.9,23.5c35.5,0,64.5-22.5,87-67.6c22.5-45,33.8-104.4,33.8-178.2
		c0-126.3-37.7-229.5-113.2-309.8c-75.4-80.2-169.1-120.3-281.1-120.3c-112,0-205.7,40.1-281.1,120.3
		C120.7,374.6,82.9,477.9,82.9,604.2s37.7,229.5,113.2,309.8c75.4,80.2,169.8,120.3,283.1,120.3c113.3,0,197.6-31.1,252.9-93.2
		c7.5-7.5,14.7-7.5,21.5,0c6.8,7.5,6.8,14.7,0,21.5c-62.8,68.3-154.3,102.4-274.4,102.4C359.1,1065,257.9,1021.6,175.6,934.9z
		 M317.4,438.8c-36.9,39.9-55.3,98.5-55.3,175.6c0,77.2,18.4,135.9,55.3,176.1c36.9,39.6,81.2,59.4,133.1,59.4
		c51.9,0,99-23.9,141.3-71.7c19.1-21.8,35.5-45.7,49.2-71.7V522.2c-13.7-25.9-30-49.8-49.2-71.7c-42.3-47.8-89.4-71.7-141.3-71.7
		C398.7,378.9,354.3,398.8,317.4,438.8z"/>
</g>
</svg>
