<?xml version="1.0" encoding="utf-8"?>
<!-- Generator: Adobe Illustrator 26.0.0, SVG Export Plug-In . SVG Version: 6.00 Build 0)  -->
<svg version="1.1" id="图层_1" xmlns="http://www.w3.org/2000/svg" xmlns:xlink="http://www.w3.org/1999/xlink" x="0px" y="0px"
	 viewBox="0 0 752 1024" style="enable-background:new 0 0 752 1024;" xml:space="preserve">
<style type="text/css">
	.st0{enable-background:new    ;}
</style>
<g class="st0">
	<path d="M540.7,634.9c-4.1-9.6-12.3-14.3-24.6-14.3H225.3c-12.3,0-20.5,4.8-24.6,14.3L128,824.3c-5.5,10.2-2,15.4,10.2,15.4h61.5
		c10.2,0,15.4,5.1,15.4,15.4c0,10.2-5.1,15.4-15.4,15.4H5.1c-10.2,0-15.4-5.1-15.4-15.4c0-10.2,5.1-15.4,15.4-15.4h66.6
		c8.2,0,15-5.1,20.5-15.4l256-665.6c2.7-10.2,10.2-15.4,22.5-15.4c12.3,0,19.8,5.1,22.5,15.4l256,665.6
		c4.8,10.2,11.6,15.4,20.5,15.4h66.5c10.2,0,15.4,5.1,15.4,15.4c0,10.2-5.1,15.4-15.4,15.4H541.7c-10.2,0-15.4-5.1-15.4-15.4
		c0-10.2,5.1-15.4,15.4-15.4h61.4c11.6,0,15-5.1,10.2-15.4L540.7,634.9z M376.8,209.9c-1.4-4.1-3.4-6.1-6.1-6.1
		c-2.7,0-4.8,2-6.1,6.1L224.2,574.5c-5.5,10.2-1.7,15.4,11.3,15.4h270.3c12.3,0,16-5.1,11.3-15.4L376.8,209.9z"/>
</g>
</svg>
