<?xml version="1.0" encoding="utf-8"?>
<!-- Generator: Adobe Illustrator 26.0.0, SVG Export Plug-In . SVG Version: 6.00 Build 0)  -->
<svg version="1.1" id="图层_1" xmlns="http://www.w3.org/2000/svg" xmlns:xlink="http://www.w3.org/1999/xlink" x="0px" y="0px"
	 viewBox="0 0 860 1024" style="enable-background:new 0 0 860 1024;" xml:space="preserve">
<style type="text/css">
	.st0{enable-background:new    ;}
</style>
<g class="st0">
	<path d="M139.7,897.6c-9.2-9.2-13.8-21.7-13.8-37.4s4.6-28.2,13.8-37.4s21.7-13.8,37.4-13.8s28.2,4.6,37.4,13.8
		s13.8,21.7,13.8,37.4s-4.6,28.2-13.8,37.4s-21.7,13.8-37.4,13.8S148.9,906.8,139.7,897.6z M161.7,711.7V128
		c0-10.2,5.1-15.4,15.4-15.4c10.2,0,15.4,5.1,15.4,15.4v583.7c0,10.2-5.1,15.4-15.4,15.4C166.9,727.1,161.7,722,161.7,711.7z"/>
</g>
</svg>
