<?xml version="1.0" encoding="utf-8"?>
<!-- Generator: Adobe Illustrator 26.0.0, SVG Export Plug-In . SVG Version: 6.00 Build 0)  -->
<svg version="1.1" id="图层_1" xmlns="http://www.w3.org/2000/svg" xmlns:xlink="http://www.w3.org/1999/xlink" x="0px" y="0px"
	 viewBox="0 0 1024 1024" style="enable-background:new 0 0 1024 1024;" xml:space="preserve">
<style type="text/css">
	.st0{enable-background:new    ;}
</style>
<g class="st0">
	<path d="M141.8,452c-9.2-9.2-13.8-21.7-13.8-37.4s4.6-28.2,13.8-37.4s21.7-13.8,37.4-13.8s28.2,4.6,37.4,13.8s13.8,21.7,13.8,37.4
		s-4.6,28.2-13.8,37.4s-21.7,13.8-37.4,13.8S151,461.2,141.8,452z M141.8,882.1c-9.2-9.2-13.8-21.7-13.8-37.4s4.6-28.2,13.8-37.4
		s21.7-13.8,37.4-13.8s28.2,4.6,37.4,13.8s13.8,21.7,13.8,37.4s-4.6,28.2-13.8,37.4c-9.2,9.2-21.7,13.8-37.4,13.8
		S151,891.3,141.8,882.1z"/>
</g>
</svg>
