<?xml version="1.0" encoding="utf-8"?>
<!-- Generator: Adobe Illustrator 26.0.0, SVG Export Plug-In . SVG Version: 6.00 Build 0)  -->
<svg version="1.1" id="图层_1" xmlns="http://www.w3.org/2000/svg" xmlns:xlink="http://www.w3.org/1999/xlink" x="0px" y="0px"
	 viewBox="0 0 1024 1024" style="enable-background:new 0 0 1024 1024;" xml:space="preserve">
<style type="text/css">
	.st0{enable-background:new    ;}
</style>
<g class="st0">
	<path d="M141.8,452c-9.2-9.2-13.8-21.7-13.8-37.4s4.6-28.2,13.8-37.4s21.7-13.8,37.4-13.8s28.2,4.6,37.4,13.8s13.8,21.7,13.8,37.4
		s-4.6,28.2-13.8,37.4s-21.7,13.8-37.4,13.8S151,461.2,141.8,452z M141.3,882.1c-8.9-9.2-13.3-21.7-13.3-37.4s4.6-28.2,13.8-37.4
		s21.7-13.8,37.4-13.8c34.1,0,51.2,20.5,51.2,61.4v15.4c0,35.5-6.8,65.7-20.5,90.6c-13.7,24.9-32.4,42.5-56.3,52.7
		c-3.4,2-7.2,3.1-11.3,3.1s-7.9-2.4-11.3-7.2c-4.8-8.9-2.7-15.4,6.2-19.5c41.6-18.4,62.5-49.8,62.5-94.2v-8.2
		c-8.2,5.5-17.8,8.2-28.7,8.2S150.2,891.3,141.3,882.1z"/>
</g>
</svg>
