<?xml version="1.0" encoding="utf-8"?>
<!-- Generator: Adobe Illustrator 26.0.0, SVG Export Plug-In . SVG Version: 6.00 Build 0)  -->
<svg version="1.1" id="图层_1" xmlns="http://www.w3.org/2000/svg" xmlns:xlink="http://www.w3.org/1999/xlink" x="0px" y="0px"
	 viewBox="0 0 1024 1024" style="enable-background:new 0 0 1024 1024;" xml:space="preserve">
<style type="text/css">
	.st0{enable-background:new    ;}
</style>
<g class="st0">
	<path d="M113.4,363.5c0-62.1,21-111.8,63-149c42-37.2,99.3-55.8,172-55.8s130.2,19.5,172.5,58.4c42.3,38.9,63.5,84.3,63.5,136.2
		c0,36.2-7.5,67.6-22.5,94.2s-33.1,48.1-54.3,64.5l-65.5,48.1c-51.9,37.5-77.8,82.9-77.8,136.2c0,10.2-5.1,15.4-15.4,15.4
		c-10.2,0-15.4-5.1-15.4-15.4c0-29.3,5.5-55.6,16.4-78.8s24.6-41.6,41-55.3l105.5-85c16.4-13,30-30.2,41-51.7s16.4-45.6,16.4-72.2
		c0-43.7-18.4-81.9-55.3-114.7c-36.9-32.8-86.9-49.2-150-49.2c-63.2,0-113,15.5-149.5,46.6c-36.5,31.1-54.8,73.5-54.8,127.5
		c0,10.2-5.1,15.4-15.4,15.4C118.5,378.9,113.4,373.8,113.4,363.5z M311.5,882.2c-9.2-9.2-13.8-21.7-13.8-37.4s4.6-28.2,13.8-37.4
		s21.7-13.8,37.4-13.8c15.7,0,28.2,4.6,37.4,13.8s13.8,21.7,13.8,37.4s-4.6,28.2-13.8,37.4c-9.2,9.2-21.7,13.8-37.4,13.8
		C333.2,896,320.7,891.4,311.5,882.2z"/>
</g>
</svg>
