<?xml version="1.0" encoding="utf-8"?>
<!-- Generator: Adobe Illustrator 26.0.0, SVG Export Plug-In . SVG Version: 6.00 Build 0)  -->
<svg version="1.1" id="图层_1" xmlns="http://www.w3.org/2000/svg" xmlns:xlink="http://www.w3.org/1999/xlink" x="0px" y="0px"
	 viewBox="0 0 860 1024" style="enable-background:new 0 0 860 1024;" xml:space="preserve">
<path d="M745.9,112.3H551.4c-10.2,0-15.4,5.1-15.4,15.4c0,10.2,5.1,15.4,15.4,15.4h61.4c5.5,0,9.2,1.5,11.2,4.6s1.7,6.7-1,10.8
	L436.7,482c-4.8,6.8-9.6,6.8-14.3,0L237,158.4c-2.7-4.1-3.1-7.7-1-10.8c2-3.1,5.8-4.6,11.3-4.6h61.5c10.2,0,15.4-5.1,15.4-15.4
	c0-10.2-5.1-15.4-15.4-15.4H114.1c-10.2,0-15.4,5.1-15.4,15.4c0,10.2,5.1,15.4,15.4,15.4h61.4c10.9,0,19.4,5.1,25.6,15.4
	l194.7,338.2H230.3c-10.2,0-15.4,5.1-15.4,15.4c0,10.3,5.1,15.4,15.4,15.4h183.2l1.6,2.8v94.3H230.3c-10.2,0-15.4,5.1-15.4,15.4
	s5.1,15.4,15.4,15.4h184.8v210.2c0,10.2-5.1,15.4-15.4,15.4H328c-10.2,0-15.4,5.1-15.4,15.4c0,10.2,5.1,15.4,15.4,15.4h204.8
	c10.2,0,15.4-5.1,15.4-15.4c0-10.2-5.1-15.4-15.4-15.4h-71.7c-10.2,0-15.4-5.1-15.4-15.4V655.1h183.8c10.2,0,15.4-5.1,15.4-15.4
	s-5.1-15.4-15.4-15.4H445.9V528l0.4-0.7h183.4c10.2,0,15.4-5.1,15.4-15.4s-5.1-15.4-15.4-15.4H464l194.9-338.2
	c6.1-10.2,14.7-15.4,25.6-15.4h61.4c10.2,0,15.4-5.1,15.4-15.4C761.3,117.5,756.1,112.3,745.9,112.3z"/>
</svg>
