<?xml version="1.0" encoding="utf-8"?>
<!-- Generator: Adobe Illustrator 26.0.0, SVG Export Plug-In . SVG Version: 6.00 Build 0)  -->
<svg version="1.1" id="图层_1" xmlns="http://www.w3.org/2000/svg" xmlns:xlink="http://www.w3.org/1999/xlink" x="0px" y="0px"
	 viewBox="0 0 666 1024" style="enable-background:new 0 0 666 1024;" xml:space="preserve">
<style type="text/css">
	.st0{enable-background:new    ;}
</style>
<g class="st0">
	<path d="M461.8,487.4c99,19.1,148.5,84.7,148.5,196.6c0,54.6-16.9,99.3-50.7,134.2c-33.8,34.8-81.8,52.2-143.9,52.2H62.5
		c-10.2,0-15.4-5.1-15.4-15.4c0-10.2,5.1-15.4,15.4-15.4h71.7c10.2,0,15.4-5.1,15.4-15.4V199.7c0-10.2-5.1-15.4-15.4-15.4H62.5
		c-10.2,0-15.4-5.1-15.4-15.4c0-10.2,5.1-15.4,15.4-15.4h312.3c54.6,0,99,17.1,133.1,51.2c34.1,34.1,51.2,76.8,51.2,128
		C559.1,405.2,526.7,456.7,461.8,487.4z M180.2,465.9c0,10.2,5.1,15.4,15.4,15.4h184.3c43,0,78.5-14.5,106.5-43.5
		c28-29,42-64.7,42-107s-13.8-77.3-41.5-105c-27.7-27.6-65-41.5-112.1-41.5H195.6c-10.2,0-15.4,5.1-15.4,15.4V465.9z M180.2,824.3
		c0,10.2,5.1,15.4,15.4,15.4h220.2c51.2,0,91.3-14.5,120.3-43.5c29-29,43.5-69.1,43.5-120.3c0-51.2-14.5-91.3-43.5-120.3
		c-29-29-69.1-43.5-120.3-43.5H195.6c-10.2,0-15.4,5.1-15.4,15.4V824.3z"/>
</g>
</svg>
