<?xml version="1.0" encoding="utf-8"?>
<!-- Generator: Adobe Illustrator 26.0.0, SVG Export Plug-In . SVG Version: 6.00 Build 0)  -->
<svg version="1.1" id="图层_1" xmlns="http://www.w3.org/2000/svg" xmlns:xlink="http://www.w3.org/1999/xlink" x="0px" y="0px"
	 viewBox="0 0 711 1024" style="enable-background:new 0 0 711 1024;" xml:space="preserve">
<style type="text/css">
	.st0{enable-background:new    ;}
</style>
<g class="st0">
	<path d="M59.4,512c0-106.5,30-194.5,90.1-264.2C209.6,178.2,287,143.3,382,143.3c82.6,0,157.3,29,224.2,87
		c10.9,8.9,16.4,5.5,16.4-10.2V169c0-10.2,5.1-15.4,15.4-15.4c10.2,0,15.4,5.1,15.4,15.4v194.6c0,10.2-5.1,15.4-15.4,15.4
		c-10.2,0-15.4-5.1-15.4-15.4v-71.7c-18.4-21.2-40-40.6-64.5-58.4c-56-39.6-114.7-59.4-176.1-59.4c-84,0-153.6,32.3-208.9,96.8
		c-55.3,64.5-82.9,145.4-82.9,242.7s28.7,177.7,86,241.1c57.3,63.5,133.8,95.2,229.4,95.2c95.6,0,172.7-31,231.4-93.2
		c6.8-6.8,13-7.5,18.4-2c5.5,5.5,8.2,9.9,8.2,13.3s-1.7,6.8-5.1,10.2C588.8,846.5,503,880.6,400.9,880.6s-184.5-34.8-247.3-104.4
		S59.4,618.5,59.4,512z"/>
</g>
</svg>
