<?xml version="1.0" encoding="utf-8"?>
<!-- Generator: Adobe Illustrator 26.0.0, SVG Export Plug-In . SVG Version: 6.00 Build 0)  -->
<svg version="1.1" id="图层_1" xmlns="http://www.w3.org/2000/svg" xmlns:xlink="http://www.w3.org/1999/xlink" x="0px" y="0px"
	 viewBox="0 0 751 1024" style="enable-background:new 0 0 751 1024;" xml:space="preserve">
<style type="text/css">
	.st0{enable-background:new    ;}
</style>
<g class="st0">
	<path d="M47.1,855c0-10.2,5.1-15.4,15.4-15.4h71.7c10.2,0,15.4-5.1,15.4-15.4V199.7c0-10.2-5.1-15.4-15.4-15.4H62.5
		c-10.2,0-15.4-5.1-15.4-15.4c0-10.2,5.1-15.4,15.4-15.4h286.7c103.1,0,186,34.1,248.8,102.4c62.8,68.3,94.2,153.6,94.2,256
		S660.8,699.7,598,768c-62.8,68.3-145.8,102.4-248.8,102.4H62.5C52.2,870.4,47.1,865.3,47.1,855z M180.2,824.3
		c0,10.2,5.1,15.4,15.4,15.4h153.6c92.8,0,168.1-31.1,225.8-93.2s86.5-140.3,86.5-234.5c0-94.2-28.8-172.4-86.5-234.5
		S442,184.3,349.2,184.3H195.6c-10.2,0-15.4,5.1-15.4,15.4V824.3z"/>
</g>
</svg>
