<?xml version="1.0" encoding="utf-8"?>
<!-- Generator: Adobe Illustrator 26.0.0, SVG Export Plug-In . SVG Version: 6.00 Build 0)  -->
<svg version="1.1" id="图层_1" xmlns="http://www.w3.org/2000/svg" xmlns:xlink="http://www.w3.org/1999/xlink" x="0px" y="0px"
	 viewBox="0 0 628 1024" style="enable-background:new 0 0 628 1024;" xml:space="preserve">
<style type="text/css">
	.st0{enable-background:new    ;}
</style>
<g class="st0">
	<path d="M47.1,855c0-10.2,5.1-15.4,15.4-15.4h71.7c10.2,0,15.4-5.1,15.4-15.4V199.7c0-10.2-5.1-15.4-15.4-15.4H62.5
		c-10.2,0-15.4-5.1-15.4-15.4c0-10.2,5.1-15.4,15.4-15.4h486.4c10.2,0,15.4,5.1,15.4,15.4v143.4c0,10.2-5.1,15.4-15.4,15.4
		c-10.2,0-15.4-5.1-15.4-15.4V199.7c0-10.2-5.1-15.4-15.4-15.4H195.6c-10.2,0-15.4,5.1-15.4,15.4v276.5c0,10.2,5.1,15.4,15.4,15.4
		H426c10.2,0,15.4-5.1,15.4-15.4V425c0-10.2,5.1-15.4,15.4-15.4c10.2,0,15.4,5.1,15.4,15.4v163.8c0,10.2-5.1,15.4-15.4,15.4
		c-10.2,0-15.4-5.1-15.4-15.4v-51.2c0-10.2-5.1-15.4-15.4-15.4H195.6c-10.2,0-15.4,5.1-15.4,15.4v286.7c0,10.2,5.1,15.4,15.4,15.4
		h332.8c10.2,0,15.4-5.1,15.4-15.4V711.7c0-10.2,5.1-15.4,15.4-15.4c10.2,0,15.4,5.1,15.4,15.4V855c0,10.2-5.1,15.4-15.4,15.4H62.5
		C52.2,870.4,47.1,865.3,47.1,855z"/>
</g>
</svg>
