<?xml version="1.0" encoding="utf-8"?>
<!-- Generator: Adobe Illustrator 26.0.0, SVG Export Plug-In . SVG Version: 6.00 Build 0)  -->
<svg version="1.1" id="图层_1" xmlns="http://www.w3.org/2000/svg" xmlns:xlink="http://www.w3.org/1999/xlink" x="0px" y="0px"
	 viewBox="0 0 600 1024" style="enable-background:new 0 0 600 1024;" xml:space="preserve">
<style type="text/css">
	.st0{enable-background:new    ;}
</style>
<g class="st0">
	<path d="M62.5,839.7h71.7c10.2,0,15.4-5.1,15.4-15.4V199.7c0-10.2-5.1-15.4-15.4-15.4H62.5c-10.2,0-15.4-5.1-15.4-15.4
		c0-10.2,5.1-15.4,15.4-15.4h486.4c10.2,0,15.4,5.1,15.4,15.4v143.4c0,10.2-5.1,15.4-15.4,15.4c-10.2,0-15.4-5.1-15.4-15.4V199.7
		c0-10.2-5.1-15.4-15.4-15.4H195.6c-10.2,0-15.4,5.1-15.4,15.4v276.5c0,10.2,5.1,15.4,15.4,15.4h240.6c10.2,0,15.4-5.1,15.4-15.4
		V425c0-10.2,5.1-15.4,15.4-15.4c10.2,0,15.4,5.1,15.4,15.4v163.8c0,10.2-5.1,15.4-15.4,15.4c-10.2,0-15.4-5.1-15.4-15.4v-51.2
		c0-10.2-5.1-15.4-15.4-15.4H195.6c-10.2,0-15.4,5.1-15.4,15.4v286.7c0,10.2,5.1,15.4,15.4,15.4h81.9c10.2,0,15.4,5.1,15.4,15.4
		c0,10.2-5.1,15.4-15.4,15.4h-215c-10.2,0-15.4-5.1-15.4-15.4C47.1,844.8,52.2,839.7,62.5,839.7z"/>
</g>
</svg>
