<?xml version="1.0" encoding="utf-8"?>
<!-- Generator: Adobe Illustrator 26.0.0, SVG Export Plug-In . SVG Version: 6.00 Build 0)  -->
<svg version="1.1" id="图层_1" xmlns="http://www.w3.org/2000/svg" xmlns:xlink="http://www.w3.org/1999/xlink" x="0px" y="0px"
	 viewBox="0 0 782 1024" style="enable-background:new 0 0 782 1024;" xml:space="preserve">
<style type="text/css">
	.st0{enable-background:new    ;}
</style>
<g class="st0">
	<path d="M90.1,512.5c0,97.3,28.2,177.8,84.5,241.7c56.3,63.8,127.5,95.7,213.5,95.7s164.2-39.2,234.5-117.8V537.6
		c0-10.2-5.1-15.4-15.4-15.4h-61.4c-10.2,0-15.4-5.1-15.4-15.4c0-10.2,5.1-15.4,15.4-15.4h194.6c10.2,0,15.4,5.1,15.4,15.4
		c0,10.2-5.1,15.4-15.4,15.4h-71.7c-10.2,0-15.4,5.1-15.4,15.4V855c0,10.2-5.1,15.4-15.4,15.4c-10.2,0-15.4-5.1-15.4-15.4v-51.2
		c0-16.4-5.5-19.8-16.4-10.2c-67.6,58-138.9,87-214,87c-99,0-179.2-34.8-240.6-104.4S59.4,618.7,59.4,512.5S89.6,318.3,150,248.3
		c60.4-70,137.7-105,231.9-105c81.9,0,156.7,29,224.2,87c10.9,9.6,16.4,6.2,16.4-10.2V169c0-10.2,5.1-15.4,15.4-15.4
		c10.2,0,15.4,5.1,15.4,15.4v194.6c0,10.2-5.1,15.4-15.4,15.4c-10.2,0-15.4-5.1-15.4-15.4v-71.7c-18.4-21.2-40-40.6-64.5-58.4
		c-56-39.6-114.7-59.4-176.1-59.4c-84,0-153.6,32.1-208.9,96.2C117.8,334.5,90.1,415.2,90.1,512.5z"/>
</g>
</svg>
