<?xml version="1.0" encoding="utf-8"?>
<!-- Generator: Adobe Illustrator 26.0.0, SVG Export Plug-In . SVG Version: 6.00 Build 0)  -->
<svg version="1.1" id="图层_1" xmlns="http://www.w3.org/2000/svg" xmlns:xlink="http://www.w3.org/1999/xlink" x="0px" y="0px"
	 viewBox="0 0 800 1024" style="enable-background:new 0 0 800 1024;" xml:space="preserve">
<style type="text/css">
	.st0{enable-background:new    ;}
</style>
<g class="st0">
	<path d="M620.5,199.7c0-10.2-5.1-15.4-15.4-15.4h-61.4c-10.2,0-15.4-5.1-15.4-15.4c0-10.2,5.1-15.4,15.4-15.4h194.5
		c10.2,0,15.4,5.1,15.4,15.4c0,10.2-5.1,15.4-15.4,15.4h-71.7c-10.2,0-15.4,5.1-15.4,15.4v624.6c0,10.2,5.1,15.4,15.4,15.4h71.7
		c10.2,0,15.4,5.1,15.4,15.4c0,10.2-5.1,15.4-15.4,15.4H543.8c-10.2,0-15.4-5.1-15.4-15.4c0-10.2,5.1-15.4,15.4-15.4h61.4
		c10.2,0,15.4-5.1,15.4-15.4V537.6c0-10.2-5.1-15.4-15.4-15.4H195.6c-10.2,0-15.4,5.1-15.4,15.4v286.7c0,10.2,5.1,15.4,15.4,15.4
		H257c10.2,0,15.4,5.1,15.4,15.4c0,10.2-5.1,15.4-15.4,15.4H62.5c-10.2,0-15.4-5.1-15.4-15.4c0-10.2,5.1-15.4,15.4-15.4h71.7
		c10.2,0,15.4-5.1,15.4-15.4V199.7c0-10.2-5.1-15.4-15.4-15.4H62.5c-10.2,0-15.4-5.1-15.4-15.4c0-10.2,5.1-15.4,15.4-15.4H257
		c10.2,0,15.4,5.1,15.4,15.4c0,10.2-5.1,15.4-15.4,15.4h-61.5c-10.2,0-15.4,5.1-15.4,15.4v276.5c0,10.2,5.1,15.4,15.4,15.4h409.6
		c10.2,0,15.4-5.1,15.4-15.4V199.7z"/>
</g>
</svg>
