<?xml version="1.0" encoding="utf-8"?>
<!-- Generator: Adobe Illustrator 26.0.0, SVG Export Plug-In . SVG Version: 6.00 Build 0)  -->
<svg version="1.1" id="图层_1" xmlns="http://www.w3.org/2000/svg" xmlns:xlink="http://www.w3.org/1999/xlink" x="0px" y="0px"
	 viewBox="0 0 517 1024" style="enable-background:new 0 0 517 1024;" xml:space="preserve">
<style type="text/css">
	.st0{enable-background:new    ;}
</style>
<g class="st0">
	<path d="M113.7,828.4c23.2,14.3,54.5,21.5,93.7,21.5s73.2-14.7,101.9-44c28.7-29.3,43-71,43-124.9V199.7c0-10.2-5.1-15.4-15.4-15.4
		h-71.7c-10.2,0-15.4-5.1-15.4-15.4c0-10.2,5.1-15.4,15.4-15.4H470c10.2,0,15.4,5.1,15.4,15.4c0,10.2-5.1,15.4-15.4,15.4h-71.7
		c-10.2,0-15.4,5.1-15.4,15.4V681c0,63.5-16.9,112.6-50.7,147.5c-33.8,34.8-78.3,52.2-133.6,52.2c-38.9,0-73.9-9.2-105-27.6
		c-31.1-18.4-55.5-42-73.2-70.7c-2.1-2.7-3.1-5.8-3.1-9.2c0-3.4,3.8-7.2,11.3-11.3c6.8-4.1,13.6-1.7,20.5,7.2
		C68.9,794.3,90.4,814.1,113.7,828.4z"/>
</g>
</svg>
