<?xml version="1.0" encoding="utf-8"?>
<!-- Generator: Adobe Illustrator 26.0.0, SVG Export Plug-In . SVG Version: 6.00 Build 0)  -->
<svg version="1.1" id="图层_1" xmlns="http://www.w3.org/2000/svg" xmlns:xlink="http://www.w3.org/1999/xlink" x="0px" y="0px"
	 viewBox="0 0 712 1024" style="enable-background:new 0 0 712 1024;" xml:space="preserve">
<style type="text/css">
	.st0{enable-background:new    ;}
</style>
<g class="st0">
	<path d="M62.5,839.7h71.7c10.2,0,15.4-5.1,15.4-15.4V199.7c0-10.2-5.1-15.4-15.4-15.4H62.5c-10.2,0-15.4-5.1-15.4-15.4
		c0-10.2,5.1-15.4,15.4-15.4H257c10.2,0,15.4,5.1,15.4,15.4c0,10.2-5.1,15.4-15.4,15.4h-61.5c-10.2,0-15.4,5.1-15.4,15.4v378.9
		l348.2-378.9c4.1-3.4,5.6-6.8,4.6-10.2s-4.3-5.1-9.7-5.1h-66.6c-10.2,0-15.4-5.1-15.4-15.4c0-10.2,5.1-15.4,15.4-15.4h209.9
		c10.2,0,15.4,5.1,15.4,15.4c0,10.2-5.1,15.4-15.4,15.4h-65.5c-7.5,0-16.4,5.1-26.6,15.4l-236.5,257l267.3,367.6
		c8.9,10.2,17.4,15.4,25.6,15.4h66.6c10.2,0,15.4,5.1,15.4,15.4c0,10.2-5.1,15.4-15.4,15.4H492.5c-10.2,0-15.4-5.1-15.4-15.4
		c0-10.2,5.1-15.4,15.4-15.4h66.6c12.3,0,14-5.1,5.1-15.4l-248.8-343L180.2,628.7v195.6c0,10.2,5.1,15.4,15.4,15.4H257
		c10.2,0,15.4,5.1,15.4,15.4c0,10.2-5.1,15.4-15.4,15.4H62.5c-10.2,0-15.4-5.1-15.4-15.4C47.1,844.8,52.2,839.7,62.5,839.7z"/>
</g>
</svg>
