<?xml version="1.0" encoding="utf-8"?>
<!-- Generator: Adobe Illustrator 26.0.0, SVG Export Plug-In . SVG Version: 6.00 Build 0)  -->
<svg version="1.1" id="图层_1" xmlns="http://www.w3.org/2000/svg" xmlns:xlink="http://www.w3.org/1999/xlink" x="0px" y="0px"
	 viewBox="0 0 995 1024" style="enable-background:new 0 0 995 1024;" xml:space="preserve">
<style type="text/css">
	.st0{enable-background:new    ;}
</style>
<g class="st0">
	<path d="M62.5,839.7h71.7c10.2,0,15.4-5.1,15.4-15.4V199.7c0-10.2-5.1-15.4-15.4-15.4H62.5c-10.2,0-15.4-5.1-15.4-15.4
		c0-10.2,5.1-15.4,15.4-15.4h112.6c12.3,0,20.8,5.1,25.6,15.4l286.7,634.9c6.8,13.7,13.6,13.7,20.5,0L794.6,169
		c4.8-10.2,13.3-15.4,25.6-15.4h112.6c10.2,0,15.4,5.1,15.4,15.4c0,10.2-5.1,15.4-15.4,15.4h-71.7c-10.2,0-15.4,5.1-15.4,15.4v624.6
		c0,10.2,5.1,15.4,15.4,15.4h71.7c10.2,0,15.4,5.1,15.4,15.4c0,10.2-5.1,15.4-15.4,15.4H738.3c-10.2,0-15.4-5.1-15.4-15.4
		c0-10.2,5.1-15.4,15.4-15.4h61.5c10.2,0,15.4-5.1,15.4-15.4v-599c0-6.8-1.4-9.5-4.1-8.2c-1.4,0-2.8,1-4.1,3.1L520.2,855
		c-5.5,10.2-13,15.4-22.5,15.4s-17.1-5.1-22.5-15.4L188.4,220.2c-2.8-4.1-4.8-5.1-6.2-3.1c-1.4,2.1-2,4.8-2,8.2v599
		c0,10.2,5.1,15.4,15.4,15.4H257c10.2,0,15.4,5.1,15.4,15.4c0,10.2-5.1,15.4-15.4,15.4H62.5c-10.2,0-15.4-5.1-15.4-15.4
		C47.1,844.8,52.2,839.7,62.5,839.7z"/>
</g>
</svg>
