<?xml version="1.0" encoding="utf-8"?>
<!-- Generator: Adobe Illustrator 26.0.0, SVG Export Plug-In . SVG Version: 6.00 Build 0)  -->
<svg version="1.1" id="图层_1" xmlns="http://www.w3.org/2000/svg" xmlns:xlink="http://www.w3.org/1999/xlink" x="0px" y="0px"
	 viewBox="0 0 803 1024" style="enable-background:new 0 0 803 1024;" xml:space="preserve">
<style type="text/css">
	.st0{enable-background:new    ;}
</style>
<g class="st0">
	<path d="M62.5,839.7h71.7c10.2,0,15.4-5.1,15.4-15.4V199.7c0-10.2-5.1-15.4-15.4-15.4H62.5c-10.2,0-15.4-5.1-15.4-15.4
		c0-10.2,5.1-15.4,15.4-15.4h112.6c10.9,0,19.4,5.1,25.6,15.4l419.8,640c1.4,2.7,3.4,3.9,6.1,3.6c2.7-0.3,4.1-3.2,4.1-8.7V199.7
		c0-10.2-5.1-15.4-15.4-15.4H554c-10.2,0-15.4-5.1-15.4-15.4c0-10.2,5.1-15.4,15.4-15.4h194.6c10.2,0,15.4,5.1,15.4,15.4
		c0,10.2-5.1,15.4-15.4,15.4h-71.7c-10.2,0-15.4,5.1-15.4,15.4v624.6c0,10.2,5.1,15.4,15.4,15.4h71.7c10.2,0,15.4,5.1,15.4,15.4
		c0,10.2-5.1,15.4-15.4,15.4H635.9c-10.9,0-19.5-5.1-25.6-15.4L190.5,215c-1.4-2.7-3.4-3.9-6.2-3.6s-4.1,3.2-4.1,8.7v604.2
		c0,10.2,5.1,15.4,15.4,15.4H257c10.2,0,15.4,5.1,15.4,15.4c0,10.2-5.1,15.4-15.4,15.4H62.5c-10.2,0-15.4-5.1-15.4-15.4
		C47.1,844.8,52.2,839.7,62.5,839.7z"/>
</g>
</svg>
