<?xml version="1.0" encoding="utf-8"?>
<!-- Generator: Adobe Illustrator 26.0.0, SVG Export Plug-In . SVG Version: 6.00 Build 0)  -->
<svg version="1.1" id="图层_1" xmlns="http://www.w3.org/2000/svg" xmlns:xlink="http://www.w3.org/1999/xlink" x="0px" y="0px"
	 viewBox="0 0 804 1024" style="enable-background:new 0 0 804 1024;" xml:space="preserve">
<style type="text/css">
	.st0{enable-background:new    ;}
</style>
<g class="st0">
	<path d="M153.6,776.7C90.8,707.4,59.4,619.2,59.4,512s31.4-195.4,94.2-264.7c62.8-69.3,145.8-103.9,248.8-103.9
		c103.1,0,186,34.7,248.8,103.9c62.8,69.3,94.2,157.5,94.2,264.7s-31.4,195.4-94.2,264.7C588.5,846,505.5,880.6,402.4,880.6
		C299.3,880.6,216.4,846,153.6,776.7z M176.1,269.3c-57.3,63.5-86,144.4-86,242.7s28.7,179.2,86,242.7s132.8,95.2,226.3,95.2
		s169-31.7,226.3-95.2s86-144.4,86-242.7s-28.7-179.2-86-242.7S496,174.1,402.4,174.1S233.5,205.8,176.1,269.3z"/>
</g>
</svg>
