<?xml version="1.0" encoding="utf-8"?>
<!-- Generator: Adobe Illustrator 26.0.0, SVG Export Plug-In . SVG Version: 6.00 Build 0)  -->
<svg version="1.1" id="图层_1" xmlns="http://www.w3.org/2000/svg" xmlns:xlink="http://www.w3.org/1999/xlink" x="0px" y="0px"
	 viewBox="0 0 648 1024" style="enable-background:new 0 0 648 1024;" xml:space="preserve">
<style type="text/css">
	.st0{enable-background:new    ;}
</style>
<g class="st0">
	<path d="M195.6,583.7c-10.2,0-15.4,5.1-15.4,15.4v225.3c0,10.2,5.1,15.4,15.4,15.4h81.9c10.2,0,15.4,5.1,15.4,15.4
		c0,10.2-5.1,15.4-15.4,15.4h-215c-10.2,0-15.4-5.1-15.4-15.4c0-10.2,5.1-15.4,15.4-15.4h71.7c10.2,0,15.4-5.1,15.4-15.4V199.7
		c0-10.2-5.1-15.4-15.4-15.4H62.5c-10.2,0-15.4-5.1-15.4-15.4c0-10.2,5.1-15.4,15.4-15.4h343c67.6,0,118.6,18.3,153.1,54.8
		c34.5,36.5,51.7,89.9,51.7,160.2c0,70.3-17.2,123.8-51.7,160.3c-34.5,36.5-85.5,54.8-153.1,54.8H195.6z M405.5,553
		c116,0,174.1-61.4,174.1-184.3c0-122.9-58-184.3-174.1-184.3H195.6c-10.2,0-15.4,5.1-15.4,15.4v337.9c0,10.2,5.1,15.4,15.4,15.4
		H405.5z"/>
</g>
</svg>
