<?xml version="1.0" encoding="utf-8"?>
<!-- Generator: Adobe Illustrator 26.0.0, SVG Export Plug-In . SVG Version: 6.00 Build 0)  -->
<svg version="1.1" id="图层_1" xmlns="http://www.w3.org/2000/svg" xmlns:xlink="http://www.w3.org/1999/xlink" x="0px" y="0px"
	 viewBox="0 0 805 1024" style="enable-background:new 0 0 805 1024;" xml:space="preserve">
<style type="text/css">
	.st0{enable-background:new    ;}
</style>
<g class="st0">
	<path d="M504.8,866.3c22.5,36.2,45.4,58,68.6,65.5c22.5,0,39.8-4.4,51.7-13.3c11.9-8.9,20.8-9.2,26.6-1c5.8,8.2,4.8,15.2-3.1,21
		c-7.9,5.8-19,11.2-33.3,16.4c-14.3,5.1-28.3,7.7-42,7.7c-44.4,0-77.8-29.4-100.3-88.1c-21.9,4.1-45.4,6.1-70.7,6.1
		c-103.1,0-186-34.5-248.8-103.4c-62.8-70.3-94.2-158.9-94.2-265.7s31.2-194.9,93.7-264.2c62.5-69.3,145.4-103.9,248.8-103.9
		c103.4,0,186.5,34.7,249.3,103.9c62.8,69.3,94.2,157.5,94.2,264.7c0,88.1-21.3,164-64,227.9C638.8,803.7,579.9,845.8,504.8,866.3z
		 M305.2,836.6c19.8-58.7,52.2-88.1,97.3-88.1c23.9,0,43.2,7.7,57.8,23c14.7,15.4,26.8,37.4,36.4,66c51.2-14.3,95.2-42,132.1-83
		c57.3-63.5,86-144.4,86-242.7c0-98.3-28.7-179.2-86-242.7c-57.3-63.5-132.8-95.2-226.3-95.2c-93.5,0-169,31.8-226.3,95.2
		c-57.3,63.5-86,144.4-86,242.7c0,98.3,28.7,179.2,86,242.7C212.3,795,255.3,822.3,305.2,836.6z M336.9,844.8
		c25.9,3.4,49.5,5.1,70.7,5.1s40.3-1.7,57.3-5.1c-12.3-43.7-33.1-65.5-62.5-65.5C371,779.2,349.2,801.1,336.9,844.8z"/>
</g>
</svg>
