<?xml version="1.0" encoding="utf-8"?>
<!-- Generator: Adobe Illustrator 26.0.0, SVG Export Plug-In . SVG Version: 6.00 Build 0)  -->
<svg version="1.1" id="图层_1" xmlns="http://www.w3.org/2000/svg" xmlns:xlink="http://www.w3.org/1999/xlink" x="0px" y="0px"
	 viewBox="0 0 704 1024" style="enable-background:new 0 0 704 1024;" xml:space="preserve">
<style type="text/css">
	.st0{enable-background:new    ;}
</style>
<g class="st0">
	<path d="M180.2,824.3c0,10.2,5.1,15.4,15.4,15.4H257c10.2,0,15.4,5.1,15.4,15.4c0,10.2-5.1,15.4-15.4,15.4H62.5
		c-10.2,0-15.4-5.1-15.4-15.4c0-10.2,5.1-15.4,15.4-15.4h71.7c10.2,0,15.4-5.1,15.4-15.4V199.7c0-10.2-5.1-15.4-15.4-15.4H62.5
		c-10.2,0-15.4-5.1-15.4-15.4c0-10.2,5.1-15.4,15.4-15.4h343c66.2,0,116.9,17.1,152.1,51.2s52.7,81.9,52.7,143.4
		s-17.6,109.2-52.7,143.4s-85.8,51.2-152.1,51.2h-5.1c-5.5,0-9.4,1.5-11.8,4.6c-2.4,3.1-1.9,6.7,1.5,10.8l194.6,266.2
		c8.9,10.2,17.4,15.4,25.6,15.4h66.6c10.2,0,15.4,5.1,15.4,15.4c0,10.2-5.1,15.4-15.4,15.4H472.1c-10.2,0-15.4-5.1-15.4-15.4
		c0-10.2,5.1-15.4,15.4-15.4h66.6c12.3,0,14-5.1,5.1-15.4L338.9,542.7H195.6c-10.2,0-15.4,5.1-15.4,15.4V824.3z M405.5,512
		c56,0,99-14.3,129-43s45.1-69,45.1-120.8s-15-92.2-45.1-120.8s-73-43-129-43H195.6c-10.2,0-15.4,5.1-15.4,15.4v297
		c0,10.2,5.1,15.4,15.4,15.4H405.5z"/>
</g>
</svg>
