<?xml version="1.0" encoding="utf-8"?>
<!-- Generator: Adobe Illustrator 26.0.0, SVG Export Plug-In . SVG Version: 6.00 Build 0)  -->
<svg version="1.1" id="图层_1" xmlns="http://www.w3.org/2000/svg" xmlns:xlink="http://www.w3.org/1999/xlink" x="0px" y="0px"
	 viewBox="0 0 233 1024" style="enable-background:new 0 0 233 1024;" xml:space="preserve">
<style type="text/css">
	.st0{enable-background:new    ;}
</style>
<g class="st0">
	<path d="M93.7,231.9c-8.5-9.2-12.8-21.7-12.8-37.4s4.6-28.2,13.8-37.4s21.7-13.8,37.4-13.8c34.1,0,51.2,20.5,51.2,61.5v15.4
		c0,35.5-6.8,65.7-20.5,90.6c-13.7,24.9-32.4,42.5-56.3,52.7c-4.1,2-8.2,3.1-12.3,3.1s-7.5-2.4-10.2-7.2c-4.8-8.9-2.7-15.4,6.1-19.5
		c41.6-18.4,62.5-49.8,62.5-94.2v-8.2c-8.9,5.5-18.8,8.2-29.7,8.2S102.2,241.2,93.7,231.9z"/>
</g>
</svg>
