<?xml version="1.0" encoding="utf-8"?>
<!-- Generator: Adobe Illustrator 26.0.0, SVG Export Plug-In . SVG Version: 6.00 Build 0)  -->
<svg version="1.1" id="图层_1" xmlns="http://www.w3.org/2000/svg" xmlns:xlink="http://www.w3.org/1999/xlink" x="0px" y="0px"
	 viewBox="0 0 377 1024" style="enable-background:new 0 0 377 1024;" xml:space="preserve">
<style type="text/css">
	.st0{enable-background:new    ;}
</style>
<g class="st0">
	<path d="M65.5,306.2v-15.4c0-35.5,6.8-65.7,20.5-90.6c13.7-24.9,32.4-42.5,56.3-52.7c3.4-2,7.2-3.1,11.2-3.1s7.9,2.4,11.3,7.2
		c4.8,8.9,2.7,15.4-6.1,19.5c-41.7,18.4-62.5,49.8-62.5,94.2v8.2c8.2-5.5,17.8-8.2,28.7-8.2s20.8,4.6,29.7,13.8s13.3,21.7,13.3,37.4
		c0,15.7-4.6,28.2-13.8,37.4s-21.7,13.8-37.4,13.8C82.6,367.6,65.5,347.1,65.5,306.2z M208.9,306.2v-15.4c0-35.5,6.8-65.7,20.5-90.6
		c13.7-24.9,32.4-42.5,56.3-52.7c3.4-2,7.2-3.1,11.2-3.1s7.9,2.4,11.3,7.2c4.8,8.9,2.7,15.4-6.1,19.5
		c-41.7,18.4-62.5,49.8-62.5,94.2v8.2c8.2-5.5,17.8-8.2,28.7-8.2s20.8,4.6,29.7,13.8s13.3,21.7,13.3,37.4c0,15.7-4.6,28.2-13.8,37.4
		s-21.7,13.8-37.4,13.8C226,367.6,208.9,347.1,208.9,306.2z"/>
</g>
</svg>
