<?xml version="1.0" encoding="utf-8"?>
<!-- Generator: Adobe Illustrator 26.0.0, SVG Export Plug-In . SVG Version: 6.00 Build 0)  -->
<svg version="1.1" id="图层_1" xmlns="http://www.w3.org/2000/svg" xmlns:xlink="http://www.w3.org/1999/xlink" x="0px" y="0px"
	 viewBox="0 0 660 1024" style="enable-background:new 0 0 660 1024;" xml:space="preserve">
<style type="text/css">
	.st0{enable-background:new    ;}
</style>
<g class="st0">
	<path d="M167.9,793.6c57.3,37.5,120.3,56.3,188.9,56.3s121.9-15.2,159.8-45.6c37.9-30.4,56.8-69.8,56.8-118.3
		c0-26.6-8.2-49.8-24.6-69.6c-16.4-19.8-36.9-35.1-61.4-46.1c-27.3-12.3-80.2-29.2-158.7-50.7c-78.5-21.5-132.6-39.6-162.3-54.3
		s-52.9-33.3-69.6-55.8s-25.1-48.5-25.1-77.8c0-57.3,18.8-103.1,56.3-137.2c37.5-34.1,97.3-51.2,179.2-51.2c81.2,0,156,29,224.2,87
		c10.9,8.9,16.4,5.5,16.4-10.2V169c0-10.2,5.1-15.4,15.4-15.4c10.2,0,15.4,5.1,15.4,15.4v194.6c0,10.2-5.1,15.4-15.4,15.4
		c-10.2,0-15.4-5.1-15.4-15.4v-71.7c-37.6-43-84.3-76.1-140.3-99.3c-30-12.3-63.5-18.4-100.3-18.4c-69.6,0-121.2,14.3-154.6,43
		c-33.5,28.7-50.2,63.8-50.2,105.5c0,26.6,8.2,49.8,24.6,69.6s36.9,35.2,61.5,46.1c27.3,12.3,80.2,29.2,158.7,50.7
		s132.6,39.6,162.3,54.3c29.7,14.7,52.9,33.3,69.6,55.8s25.1,49.5,25.1,80.9c0,61.5-21.5,110.3-64.5,146.4
		c-43,36.2-106.8,54.3-191.5,54.3s-161.1-29-229.4-87c-10.9-8.9-16.4-5.5-16.4,10.2V855c0,10.2-5.1,15.4-15.4,15.4
		c-10.2,0-15.4-5.1-15.4-15.4V660.5c0-10.2,5.1-15.4,15.4-15.4c10.2,0,15.4,5.1,15.4,15.4v76.8C120.8,758.4,142.7,777.2,167.9,793.6
		z"/>
</g>
</svg>
