<?xml version="1.0" encoding="utf-8"?>
<!-- Generator: Adobe Illustrator 26.0.0, SVG Export Plug-In . SVG Version: 6.00 Build 0)  -->
<svg version="1.1" id="图层_1" xmlns="http://www.w3.org/2000/svg" xmlns:xlink="http://www.w3.org/1999/xlink" x="0px" y="0px"
	 viewBox="0 0 632 1024" style="enable-background:new 0 0 632 1024;" xml:space="preserve">
<style type="text/css">
	.st0{enable-background:new    ;}
</style>
<g class="st0">
	<path d="M26.6,317.4V169c0-10.2,5.1-15.4,15.4-15.4h553c10.2,0,15.4,5.1,15.4,15.4v148.5c0,10.2-5.1,15.4-15.4,15.4
		c-10.2,0-15.4-5.1-15.4-15.4V199.7c0-10.2-5.1-15.4-15.4-15.4h-215c-10.2,0-15.4,5.1-15.4,15.4v624.6c0,10.2,5.1,15.4,15.4,15.4
		h71.7c10.2,0,15.4,5.1,15.4,15.4c0,10.2-5.1,15.4-15.4,15.4H216.1c-10.2,0-15.4-5.1-15.4-15.4c0-10.2,5.1-15.4,15.4-15.4h71.7
		c10.2,0,15.4-5.1,15.4-15.4V199.7c0-10.2-5.1-15.4-15.4-15.4h-215c-10.2,0-15.4,5.1-15.4,15.4v117.8c0,10.2-5.1,15.4-15.4,15.4
		C31.7,332.8,26.6,327.7,26.6,317.4z"/>
</g>
</svg>
