<?xml version="1.0" encoding="utf-8"?>
<!-- Generator: Adobe Illustrator 26.0.0, SVG Export Plug-In . SVG Version: 6.00 Build 0)  -->
<svg version="1.1" id="图层_1" xmlns="http://www.w3.org/2000/svg" xmlns:xlink="http://www.w3.org/1999/xlink" x="0px" y="0px"
	 viewBox="0 0 967 1024" style="enable-background:new 0 0 967 1024;" xml:space="preserve">
<style type="text/css">
	.st0{enable-background:new    ;}
</style>
<g class="st0">
	<path d="M79.9,235.5V169c0-10.2,5.1-15.4,15.4-15.4h266.2c10.2,0,15.4,5.1,15.4,15.4v66.6c0,10.2-5.1,15.4-15.4,15.4
		c-10.2,0-15.4-5.1-15.4-15.4v-35.8c0-10.2-5.1-15.4-15.4-15.4h-71.7c-10.2,0-15.4,5.1-15.4,15.4V425c0,10.2,5.1,15.4,15.4,15.4h41
		c10.2,0,15.4,5.1,15.4,15.4c0,10.2-5.1,15.4-15.4,15.4H156.7c-10.2,0-15.4-5.1-15.4-15.4c0-10.2,5.1-15.4,15.4-15.4h41
		c10.2,0,15.4-5.1,15.4-15.4V199.7c0-10.2-5.1-15.4-15.4-15.4H126c-10.2,0-15.4,5.1-15.4,15.4v35.8c0,10.2-5.1,15.4-15.4,15.4
		C85,250.9,79.9,245.8,79.9,235.5z M422.9,440.3h41c10.2,0,15.4-5.1,15.4-15.4V199.7c0-10.2-5.1-15.4-15.4-15.4h-41
		c-10.2,0-15.4-5.1-15.4-15.4c0-10.2,5.1-15.4,15.4-15.4h78.9c12.3,0,20.8,5.1,25.6,15.4L638,404.5c6.8,13.7,13.6,13.7,20.5,0
		L769,169c4.8-10.2,13.3-15.4,25.6-15.4h78.8c10.2,0,15.4,5.1,15.4,15.4c0,10.2-5.1,15.4-15.4,15.4h-41c-10.2,0-15.4,5.1-15.4,15.4
		V425c0,10.2,5.1,15.4,15.4,15.4h41c10.2,0,15.4,5.1,15.4,15.4c0,10.2-5.1,15.4-15.4,15.4H750.6c-10.2,0-15.4-5.1-15.4-15.4
		c0-10.2,5.1-15.4,15.4-15.4h20.5c10.2,0,15.4-5.1,15.4-15.4V225.3c0-6.8-1.4-9.5-4.1-8.2c-1.4,0-2.8,1-4.1,3.1L667.6,455.7
		c-4.8,10.2-11.3,15.4-19.5,15.4s-14.7-5.1-19.5-15.4L518.1,220.2c-2.7-4.1-4.8-5.1-6.1-3.1c-1.4,2.1-2,4.8-2,8.2V425
		c0,10.2,5.1,15.4,15.4,15.4h20.5c10.2,0,15.4,5.1,15.4,15.4c0,10.2-5.1,15.4-15.4,15.4H422.9c-10.2,0-15.4-5.1-15.4-15.4
		C407.5,445.4,412.7,440.3,422.9,440.3z"/>
</g>
</svg>
