<?xml version="1.0" encoding="utf-8"?>
<!-- Generator: Adobe Illustrator 26.0.0, SVG Export Plug-In . SVG Version: 6.00 Build 0)  -->
<svg version="1.1" id="图层_1" xmlns="http://www.w3.org/2000/svg" xmlns:xlink="http://www.w3.org/1999/xlink" x="0px" y="0px"
	 viewBox="0 0 794 1024" style="enable-background:new 0 0 794 1024;" xml:space="preserve">
<style type="text/css">
	.st0{enable-background:new    ;}
</style>
<g class="st0">
	<path d="M44,153.6h194.6c10.2,0,15.4,5.1,15.4,15.4c0,10.2-5.1,15.4-15.4,15.4h-61.4c-10.2,0-15.4,5.1-15.4,15.4v414.7
		c0,71,22.2,128,66.5,171s100.7,64.5,169,64.5c68.3,0,124.6-21.5,169-64.5s66.6-100,66.6-171V199.7c0-10.2-5.1-15.4-15.4-15.4H556
		c-10.2,0-15.4-5.1-15.4-15.4c0-10.2,5.1-15.4,15.4-15.4h194.6c10.2,0,15.4,5.1,15.4,15.4c0,10.2-5.1,15.4-15.4,15.4h-71.7
		c-10.2,0-15.4,5.1-15.4,15.4v414.7c0,78.5-25.1,142.5-75.3,192c-50.2,49.5-113.8,74.2-191,74.2c-77.2,0-140.8-24.7-191-74.2
		c-50.2-49.5-75.2-113.5-75.2-192V199.7c0-10.2-5.1-15.4-15.4-15.4H44c-10.2,0-15.4-5.1-15.4-15.4C28.7,158.7,33.8,153.6,44,153.6z"
		/>
</g>
</svg>
