<?xml version="1.0" encoding="utf-8"?>
<!-- Generator: Adobe Illustrator 26.0.0, SVG Export Plug-In . SVG Version: 6.00 Build 0)  -->
<svg version="1.1" id="图层_1" xmlns="http://www.w3.org/2000/svg" xmlns:xlink="http://www.w3.org/1999/xlink" x="0px" y="0px"
	 viewBox="0 0 741.1 1024" style="enable-background:new 0 0 741.1 1024;" xml:space="preserve">
<style type="text/css">
	.st0{enable-background:new    ;}
</style>
<g class="st0">
	<path d="M5.1,153.6h194.6c10.2,0,15.4,5.1,15.4,15.4c0,10.2-5.1,15.4-15.4,15.4h-61.5c-11.6,0-15,5.1-10.2,15.4l236.5,614.4
		c1.4,4.1,3.4,6.1,6.1,6.1c2.7,0,4.8-2,6.1-6.1l236.5-614.4c4.8-10.2,1.4-15.4-10.2-15.4h-61.4c-10.2,0-15.4-5.1-15.4-15.4
		c0-10.2,5.1-15.4,15.4-15.4h194.5c10.2,0,15.4,5.1,15.4,15.4c0,10.2-5.1,15.4-15.4,15.4h-66.5c-8.2,0-15,5.1-20.5,15.4l-256,665.6
		c-2.7,10.2-10.2,15.4-22.5,15.4c-12.3,0-19.8-5.1-22.5-15.4l-256-665.6c-5.5-10.2-12.3-15.4-20.5-15.4H5.1
		c-10.2,0-15.4-5.1-15.4-15.4C-10.2,158.7-5.1,153.6,5.1,153.6z"/>
</g>
</svg>
