<?xml version="1.0" encoding="utf-8"?>
<!-- Generator: Adobe Illustrator 26.0.0, SVG Export Plug-In . SVG Version: 6.00 Build 0)  -->
<svg version="1.1" id="图层_1" xmlns="http://www.w3.org/2000/svg" xmlns:xlink="http://www.w3.org/1999/xlink" x="0px" y="0px"
	 viewBox="0 0 1024 1024" style="enable-background:new 0 0 1024 1024;" xml:space="preserve">
<style type="text/css">
	.st0{enable-background:new    ;}
</style>
<g class="st0">
	<path d="M5.1,153.6h194.6c10.2,0,15.4,5.1,15.4,15.4c0,10.2-5.1,15.4-15.4,15.4h-61.5c-11.6,0-15,5.1-10.2,15.4l183.3,591.9
		c1.4,4.1,3.4,6.1,6.1,6.1c2.7,0,4.8-2,6.1-6.1L498.7,169c3.4-10.2,10.2-15.4,20.5-15.4c10.2,0,17.1,5.1,20.5,15.4l174.1,622.6
		c1.4,4.1,3.4,6.1,6.1,6.1c2.7,0,4.8-2,6.1-6.1l183.3-591.9c5.5-10.2,2-15.4-10.2-15.4h-61.5c-10.2,0-15.4-5.1-15.4-15.4
		c0-10.2,5.1-15.4,15.4-15.4h194.6c10.2,0,15.4,5.1,15.4,15.4c0,10.2-5.1,15.4-15.4,15.4h-66.6c-10.2,0-17.1,5.1-20.5,15.4
		L739.3,865.3c-2.7,10.2-9.2,15.4-19.5,15.4c-10.2,0-16.7-5.1-19.5-15.4L525.3,240.6c-1.4-4.1-3.8-6.1-7.2-6.1s-5.8,2-7.2,6.1
		L336.9,865.3c-3.4,10.2-9.9,15.4-19.5,15.4s-16-5.1-19.5-15.4L92.2,199.7c-2.7-10.2-9.6-15.4-20.5-15.4H5.1
		c-10.2,0-15.4-5.1-15.4-15.4C-10.2,158.7-5.1,153.6,5.1,153.6z"/>
</g>
</svg>
