<?xml version="1.0" encoding="utf-8"?>
<!-- Generator: Adobe Illustrator 26.0.0, SVG Export Plug-In . SVG Version: 6.00 Build 0)  -->
<svg version="1.1" id="图层_1" xmlns="http://www.w3.org/2000/svg" xmlns:xlink="http://www.w3.org/1999/xlink" x="0px" y="0px"
	 viewBox="0 0 675 1024" style="enable-background:new 0 0 675 1024;" xml:space="preserve">
<style type="text/css">
	.st0{enable-background:new    ;}
</style>
<g class="st0">
	<path d="M22.5,839.7H84c10.9,0,19.5-5.1,25.6-15.4L314.4,514c4.1-6.1,4.1-12.3,0-18.4L119.8,199.7c-6.2-10.2-14.7-15.4-25.6-15.4
		H32.8c-10.2,0-15.4-5.1-15.4-15.4c0-10.2,5.1-15.4,15.4-15.4h194.6c10.2,0,15.4,5.1,15.4,15.4c0,10.2-5.1,15.4-15.4,15.4h-61.4
		c-5.5,0-9.2,1.5-11.3,4.6c-2.1,3.1-1.7,6.7,1,10.8l175.1,266.2c4.8,6.8,9.6,6.8,14.3,0l176.1-266.2c2.7-4.1,3.1-7.7,1-10.8
		c-2-3.1-5.8-4.6-11.3-4.6h-61.4c-10.2,0-15.4-5.1-15.4-15.4c0-10.2,5.1-15.4,15.4-15.4h194.6c10.2,0,15.4,5.1,15.4,15.4
		c0,10.2-5.1,15.4-15.4,15.4h-61.4c-10.9,0-19.5,5.1-25.6,15.4L362.5,495.6c-4.1,6.2-4.1,12.3,0,18.4l204.8,310.3
		c6.1,10.2,14.7,15.4,25.6,15.4h61.5c10.2,0,15.4,5.1,15.4,15.4c0,10.2-5.1,15.4-15.4,15.4H459.8c-10.2,0-15.4-5.1-15.4-15.4
		c0-10.2,5.1-15.4,15.4-15.4h61.4c5.5,0,9.2-1.5,11.2-4.6c2-3.1,1.7-6.7-1-10.8L345.1,542.7c-4.8-6.8-9.6-6.8-14.3,0L145.4,824.3
		c-2.7,4.1-3.1,7.7-1,10.8c2,3.1,5.8,4.6,11.3,4.6h61.5c10.2,0,15.4,5.1,15.4,15.4c0,10.2-5.1,15.4-15.4,15.4H22.5
		c-10.2,0-15.4-5.1-15.4-15.4C7.2,844.8,12.3,839.7,22.5,839.7z"/>
</g>
</svg>
