<?xml version="1.0" encoding="utf-8"?>
<!-- Generator: Adobe Illustrator 26.0.0, SVG Export Plug-In . SVG Version: 6.00 Build 0)  -->
<svg version="1.1" id="图层_1" xmlns="http://www.w3.org/2000/svg" xmlns:xlink="http://www.w3.org/1999/xlink" x="0px" y="0px"
	 viewBox="0 0 652 1024" style="enable-background:new 0 0 652 1024;" xml:space="preserve">
<style type="text/css">
	.st0{enable-background:new    ;}
</style>
<g class="st0">
	<path d="M5.1,153.6h194.6c10.2,0,15.4,5.1,15.4,15.4c0,10.2-5.1,15.4-15.4,15.4h-61.5c-5.5,0-9.2,1.5-11.3,4.6
		c-2,3.1-1.7,6.7,1,10.8l185.3,323.6c4.8,6.8,9.6,6.8,14.3,0L514,199.7c2.7-4.1,3.1-7.7,1-10.8c-2-3.1-5.8-4.6-11.2-4.6h-61.4
		c-10.2,0-15.4-5.1-15.4-15.4c0-10.2,5.1-15.4,15.4-15.4h194.5c10.2,0,15.4,5.1,15.4,15.4c0,10.2-5.1,15.4-15.4,15.4h-61.4
		c-10.9,0-19.5,5.1-25.6,15.4l-213,369.7v255c0,10.2,5.1,15.4,15.4,15.4h71.7c10.2,0,15.4,5.1,15.4,15.4c0,10.2-5.1,15.4-15.4,15.4
		H219.1c-10.2,0-15.4-5.1-15.4-15.4c0-10.2,5.1-15.4,15.4-15.4h71.7c10.2,0,15.4-5.1,15.4-15.4V571.4l-214-371.7
		c-6.2-10.2-14.7-15.4-25.6-15.4H5.1c-10.2,0-15.4-5.1-15.4-15.4C-10.2,158.7-5.1,153.6,5.1,153.6z"/>
</g>
</svg>
