<?xml version="1.0" encoding="utf-8"?>
<!-- Generator: Adobe Illustrator 26.0.0, SVG Export Plug-In . SVG Version: 6.00 Build 0)  -->
<svg version="1.1" id="图层_1" xmlns="http://www.w3.org/2000/svg" xmlns:xlink="http://www.w3.org/1999/xlink" x="0px" y="0px"
	 viewBox="0 0 629 1024" style="enable-background:new 0 0 629 1024;" xml:space="preserve">
<style type="text/css">
	.st0{enable-background:new    ;}
</style>
<g class="st0">
	<path d="M51.2,853c0-2.7,4.1-10.6,12.3-23.5l459.8-628.8c4.1-4.1,5.1-7.8,3.1-11.2s-6.8-5.1-14.3-5.1H102.4
		c-10.2,0-15.4,5.1-15.4,15.4v112.6c0,10.2-5.1,15.4-15.4,15.4s-15.4-5.1-15.4-15.4V169c0-10.2,5.1-15.4,15.4-15.4h491.5
		c10.2,0,15.4,5.8,15.4,17.4c0,2.7-4.1,10.6-12.3,23.5L106.5,823.3c-4.1,4.1-5.1,7.9-3.1,11.3s6.8,5.1,14.3,5.1h409.6
		c10.2,0,15.4-5.1,15.4-15.4V711.7c0-10.2,5.1-15.4,15.4-15.4c10.2,0,15.4,5.1,15.4,15.4V855c0,10.2-5.1,15.4-15.4,15.4H66.6
		C56.3,870.4,51.2,864.6,51.2,853z"/>
</g>
</svg>
