<?xml version="1.0" encoding="utf-8"?>
<!-- Generator: Adobe Illustrator 26.0.0, SVG Export Plug-In . SVG Version: 6.00 Build 0)  -->
<svg version="1.1" id="图层_1" xmlns="http://www.w3.org/2000/svg" xmlns:xlink="http://www.w3.org/1999/xlink" x="0px" y="0px"
	 viewBox="0 0 478 1024" style="enable-background:new 0 0 478 1024;" xml:space="preserve">
<style type="text/css">
	.st0{enable-background:new    ;}
</style>
<g class="st0">
	<path d="M24.6,393.2l197.6-269.3c4.1-7.5,9.7-11.3,16.9-11.3c7.2,0,12.8,3.8,16.9,11.3l197.6,269.3c2,2.7,3.1,6,3.1,9.7
		s-2,7.2-6.1,10.2c-4.1,3.1-8.2,4.6-12.3,4.6s-7.8-2.7-11.2-8.2L248.8,166.9c-2.7-4.1-6-6.1-9.7-6.1s-7,2-9.7,6.1L51.2,409.6
		c-3.4,5.5-7.2,8.2-11.3,8.2s-8.2-1.5-12.3-4.6c-4.1-3.1-6.1-6.5-6.1-10.2S22.5,395.9,24.6,393.2z"/>
</g>
</svg>
