<?xml version="1.0" encoding="utf-8"?>
<!-- Generator: Adobe Illustrator 26.0.0, SVG Export Plug-In . SVG Version: 6.00 Build 0)  -->
<svg version="1.1" id="图层_1" xmlns="http://www.w3.org/2000/svg" xmlns:xlink="http://www.w3.org/1999/xlink" x="0px" y="0px"
	 viewBox="0 0 585 1024" style="enable-background:new 0 0 585 1024;" xml:space="preserve">
<style type="text/css">
	.st0{enable-background:new    ;}
</style>
<g class="st0">
	<path d="M271.4,348.2c57.3,0,103.4,16.2,138.2,48.6c34.8,32.4,52.2,72.5,52.2,120.3v307.2c0,10.2,5.1,15.4,15.4,15.4h71.7
		c10.2,0,15.4,5.1,15.4,15.4c0,10.2-5.1,15.4-15.4,15.4H446.5c-10.2,0-15.4-5.1-15.4-15.4v-57.3c0-6.8-1.4-11.6-4.1-14.3
		s-6.8-1.4-12.3,4.1c-18.4,23.2-44,44.5-76.8,64c-32.8,19.4-66.9,29.2-102.4,29.2c-63.5,0-111.6-14.2-144.4-42.5S42,773.1,42,728.1
		S60.8,646,98.3,617c37.5-29,87-43.5,148.5-43.5h169c10.2,0,15.4-5.1,15.4-15.4v-41c0-39.6-15-72.5-45.1-98.8
		c-30-26.3-66.9-39.4-110.6-39.4s-79.5,6-107.5,17.9c-28,11.9-47.6,22.3-58.9,31.2s-19.8,9.2-25.6,1c-5.8-8.2-5-15,2.6-20.5
		C135.2,368.3,197,348.2,271.4,348.2z M431.1,619.5c0-10.2-5.1-15.4-15.4-15.4h-169c-59.4,0-103.2,11.6-131.6,34.8
		c-28.3,23.2-42.5,52.7-42.5,88.6s13.1,65.2,39.4,88.1s66,34.3,119.3,34.3c66.2,0,124.6-33.4,175.1-100.3
		c8.9-11.6,17.1-24.2,24.6-37.9V619.5z"/>
</g>
</svg>
