<?xml version="1.0" encoding="utf-8"?>
<!-- Generator: Adobe Illustrator 26.0.0, SVG Export Plug-In . SVG Version: 6.00 Build 0)  -->
<svg version="1.1" id="图层_1" xmlns="http://www.w3.org/2000/svg" xmlns:xlink="http://www.w3.org/1999/xlink" x="0px" y="0px"
	 viewBox="0 0 613 1024" style="enable-background:new 0 0 613 1024;" xml:space="preserve">
<style type="text/css">
	.st0{enable-background:new    ;}
</style>
<g class="st0">
	<path d="M129,343c0,10.2,5.1,15.4,15.4,15.4h138.2c86.7,0,154.3,22.2,202.8,66.6c49.2,44.4,73.7,107.9,73.7,190.5
		c0,81.9-20.5,146.6-61.5,194s-95.6,71.2-163.8,71.2c-42.3,0-80.6-9.9-114.7-29.7c-32.1-20.5-56.7-41.6-73.7-63.5
		c-5.5-5.5-9.6-6.8-12.3-4.1c-2.7,2.7-4.1,7.5-4.1,14.3V855c0,10.2-5.1,15.4-15.4,15.4s-15.4-5.1-15.4-15.4V199.7
		c0-10.2-5.1-15.4-15.4-15.4H11.3C1,184.3-4.1,179.2-4.1,169c0-10.2,5.1-15.4,15.4-15.4h102.4c10.2,0,15.4,5.1,15.4,15.4V343z
		 M129,711.7c15.7,27.3,33.1,50.5,52.2,69.6c45.7,45.8,97.1,68.6,154.1,68.6s103.4-20.6,139.3-62c35.8-41.3,53.8-99,53.8-173
		s-21.5-130.2-64.5-168.5c-43-38.2-103.4-57.3-181.2-57.3H144.4c-10.2,0-15.4,5.1-15.4,15.4V711.7z"/>
</g>
</svg>
