<?xml version="1.0" encoding="utf-8"?>
<!-- Generator: Adobe Illustrator 26.0.0, SVG Export Plug-In . SVG Version: 6.00 Build 0)  -->
<svg version="1.1" id="图层_1" xmlns="http://www.w3.org/2000/svg" xmlns:xlink="http://www.w3.org/1999/xlink" x="0px" y="0px"
	 viewBox="0 0 562 1024" style="enable-background:new 0 0 562 1024;" xml:space="preserve">
<style type="text/css">
	.st0{enable-background:new    ;}
</style>
<g class="st0">
	<path d="M472.1,486.4c-55.3-71.7-120.2-107.5-194.6-107.5c-55.3,0-101.7,21.8-139.3,65.5c-36.9,44.4-55.3,101.7-55.3,172
		s19.5,126.8,58.4,169.5c38.9,42.7,90.1,64,153.6,64c62.8,0,115.4-17.1,157.7-51.2c10.9-8.2,19.4-15,25.6-20.5
		c6.1-5.5,10.9-7.3,14.3-5.6c3.4,1.7,6.8,4.6,10.2,8.7c3.4,4.1,5.1,7.7,5.1,10.8s-3.1,7.7-9.2,13.8c-22.5,19.8-50,37.2-82.4,52.2
		c-32.4,15-73.6,22.5-123.4,22.5c-72.4,0-130.6-24.7-174.6-74.2c-44-49.5-66-113.5-66-192c0-78.5,21.5-142.5,64.5-192
		c43-49.5,97.5-74.2,163.3-74.2s124.4,25.6,175.6,76.8c10.9,9.6,16.4,6.1,16.4-10.2v-41c0-10.2,5.1-15.4,15.4-15.4
		c10.2,0,15.4,5.1,15.4,15.4v163.8c0,10.2-5.1,15.4-15.4,15.4c-10.2,0-15.4-5.1-15.4-15.4V486.4z"/>
</g>
</svg>
